<svg xmlns="http://www.w3.org/2000/svg" width="68" height="130"><path style="opacity:1;fill:#f60;fill-opacity:1;fill-rule:nonzero;stroke-width:13.345" d="M0 208.847h744.094v984.831H0z" transform="matrix(.09139 0 0 .09139 0 16.914)"/><g aria-label="NOVA" style="font-style:normal;font-variant:normal;font-weight:800;font-stretch:normal;font-size:267.972px;line-height:0%;font-family:Raleway;-inkscape-font-specification:'Raleway Ultra-Bold';letter-spacing:0;word-spacing:0;fill:#7d7d7d;fill-opacity:1;stroke:none;stroke-width:22.331px;stroke-linecap:butt;stroke-linejoin:miter;stroke-opacity:1"><path d="M53.238 28.895V137.69H9.291v-190.26h34.3L132.29 59.176V-52.57h43.947v190.26h-35.372zM296.226 139.3q-21.17 0-38.588-8.308-17.418-8.307-29.745-21.706-12.327-13.666-19.294-31.084-6.7-17.419-6.7-35.909 0-18.758 6.968-36.176 7.235-17.418 19.83-30.549 12.863-13.398 30.28-21.17 17.419-8.039 38.053-8.039 21.17 0 38.588 8.308 17.418 8.307 29.745 21.973 12.326 13.667 19.026 31.085 6.699 17.418 6.699 35.372 0 18.758-7.235 36.177-6.968 17.418-19.562 30.816-12.595 13.13-30.013 21.17-17.418 8.04-38.052 8.04zM246.65 42.83q0 10.986 3.216 21.437 3.215 10.183 9.379 18.222 6.431 8.04 15.81 12.863 9.38 4.823 21.438 4.823 12.594 0 21.973-5.091 9.38-5.092 15.543-13.13 6.163-8.308 9.11-18.49 3.217-10.452 3.217-21.17 0-10.987-3.216-21.17-3.216-10.451-9.647-18.222-6.431-8.04-15.81-12.595-9.111-4.824-21.17-4.824-12.595 0-21.974 5.092-9.111 4.823-15.542 12.862-6.164 8.04-9.38 18.49-2.947 10.183-2.947 20.902zM437.28-52.569 482.03 82.49l44.216-135.058h46.36l-72.085 190.26h-36.98l-72.889-190.26ZM625.74-52.569h39.66l69.404 190.26h-45.02l-14.738-42.607h-59.222l-14.47 42.607h-45.02Zm42.07 117.372-22.24-67.26-22.778 67.26Z" style="font-style:normal;font-variant:normal;font-weight:800;font-stretch:normal;font-family:Raleway;-inkscape-font-specification:'Raleway Ultra-Bold';fill:#7d7d7d;fill-opacity:1;stroke-width:22.331px" transform="matrix(.09139 0 0 .09139 0 16.914)"/></g><g style="font-style:normal;font-weight:400;font-size:829.604px;line-height:1.25;font-family:sans-serif;letter-spacing:0;word-spacing:0;fill:#fff;fill-opacity:1;stroke:none;stroke-width:20.7401"><path d="M576.18 537.61q0 55.496-33.622 94.383-33.622 38.888-94.384 53.471v2.43q71.7 8.912 108.562 43.75 36.862 34.43 36.862 93.168 0 85.471-61.977 133.27-61.977 47.395-177.02 47.395-96.409 0-170.944-32.001V866.94q34.432 17.418 75.75 28.355 41.318 10.938 81.826 10.938 61.978 0 91.548-21.065 29.571-21.064 29.571-67.648 0-41.723-34.026-59.142-34.027-17.418-108.562-17.418H274.8v-96.004h45.774q68.864 0 100.46-17.823 32.001-18.23 32.001-61.978 0-67.243-84.256-67.243-29.166 0-59.547 9.722-29.976 9.722-66.838 33.622l-57.927-86.282q81.016-58.332 193.224-58.332 91.953 0 145.018 37.267 53.47 37.268 53.47 103.7z" style="font-style:normal;font-variant:normal;font-weight:700;font-stretch:normal;font-family:'Open Sans';-inkscape-font-specification:'Open Sans Bold';fill:#fff;stroke-width:20.7401" transform="matrix(.09139 0 0 .09139 0 16.914)" aria-label="3"/></g></svg>