{
	"asset":{
		"generator":"Khronos glTF Blender I/O v3.6.28",
		"version":"2.0"
	},
	"extensionsUsed":[
		"KHR_materials_emissive_strength"
	],
	"scene":0,
	"scenes":[
		{
			"name":"Scene",
			"nodes":[
				0,
				1,
				2,
				3,
				4,
				5,
				6,
				7,
				8,
				9,
				10,
				11,
				12
			]
		}
	],
	"nodes":[
		{
			"mesh":0,
			"name":"BustUp__Body_M.001",
			"scale":[
				0.02539999783039093,
				0.02539999969303608,
				0.02539999783039093
			]
		},
		{
			"mesh":1,
			"name":"BustUp__Body_M.002",
			"scale":[
				0.02539999783039093,
				0.02539999969303608,
				0.02539999783039093
			]
		},
		{
			"mesh":2,
			"name":"BustUp__Body_M.003",
			"scale":[
				0.02539999783039093,
				0.02539999969303608,
				0.02539999783039093
			]
		},
		{
			"mesh":3,
			"name":"BustUp__Body_M.004",
			"scale":[
				0.02539999783039093,
				0.02539999969303608,
				0.02539999783039093
			]
		},
		{
			"mesh":4,
			"name":"BustUp__Body_M.005",
			"scale":[
				0.02539999783039093,
				0.02539999969303608,
				0.02539999783039093
			]
		},
		{
			"mesh":5,
			"name":"BustUp__Body_M.006",
			"scale":[
				0.02539999783039093,
				0.02539999969303608,
				0.02539999783039093
			]
		},
		{
			"mesh":6,
			"name":"BustUp__Body_M.007",
			"scale":[
				0.02539999783039093,
				0.02539999969303608,
				0.02539999783039093
			]
		},
		{
			"mesh":7,
			"name":"BustUp__Body_M.008",
			"scale":[
				0.02539999783039093,
				0.02539999969303608,
				0.02539999783039093
			]
		},
		{
			"mesh":8,
			"name":"BustUp__Body_M.009",
			"scale":[
				0.02539999783039093,
				0.02539999969303608,
				0.02539999783039093
			]
		},
		{
			"mesh":9,
			"name":"BustUp__Body_M.010",
			"scale":[
				0.02539999783039093,
				0.02539999969303608,
				0.02539999783039093
			]
		},
		{
			"mesh":10,
			"name":"Hair__Body_M.001",
			"scale":[
				0.02539999783039093,
				0.02539999969303608,
				0.02539999783039093
			]
		},
		{
			"mesh":11,
			"name":"Hair__Body_M.002",
			"scale":[
				0.02539999783039093,
				0.02539999969303608,
				0.02539999783039093
			]
		},
		{
			"mesh":12,
			"name":"Hair__Body_M.003",
			"scale":[
				0.02539999783039093,
				0.02539999969303608,
				0.02539999783039093
			]
		}
	],
	"materials":[
		{
			"doubleSided":true,
			"emissiveFactor":[
				1,
				1,
				1
			],
			"emissiveTexture":{
				"index":0
			},
			"extensions":{
				"KHR_materials_emissive_strength":{
					"emissiveStrength":2
				}
			},
			"name":"Body_M",
			"pbrMetallicRoughness":{
				"baseColorFactor":[
					0,
					0,
					0,
					1
				]
			}
		},
		{
			"alphaCutoff":0.5,
			"alphaMode":"MASK",
			"doubleSided":true,
			"emissiveFactor":[
				1,
				1,
				1
			],
			"emissiveTexture":{
				"index":1
			},
			"extensions":{
				"KHR_materials_emissive_strength":{
					"emissiveStrength":2
				}
			},
			"name":"Body_M.001",
			"pbrMetallicRoughness":{
				"baseColorFactor":[
					0,
					0,
					0,
					1
				]
			}
		}
	],
	"meshes":[
		{
			"name":"Mesh.003",
			"primitives":[
				{
					"attributes":{
						"COLOR_0":0,
						"POSITION":1,
						"NORMAL":2,
						"TEXCOORD_0":3,
						"TEXCOORD_1":4
					},
					"indices":5,
					"material":0
				}
			]
		},
		{
			"name":"Mesh.004",
			"primitives":[
				{
					"attributes":{
						"COLOR_0":6,
						"POSITION":7,
						"NORMAL":8,
						"TEXCOORD_0":9,
						"TEXCOORD_1":10
					},
					"indices":11,
					"material":0
				}
			]
		},
		{
			"name":"Mesh.005",
			"primitives":[
				{
					"attributes":{
						"COLOR_0":12,
						"POSITION":13,
						"NORMAL":14,
						"TEXCOORD_0":15,
						"TEXCOORD_1":16
					},
					"indices":17,
					"material":0
				}
			]
		},
		{
			"name":"Mesh.006",
			"primitives":[
				{
					"attributes":{
						"COLOR_0":18,
						"POSITION":19,
						"NORMAL":20,
						"TEXCOORD_0":21,
						"TEXCOORD_1":22
					},
					"indices":23,
					"material":0
				}
			]
		},
		{
			"name":"Mesh.007",
			"primitives":[
				{
					"attributes":{
						"COLOR_0":24,
						"POSITION":25,
						"NORMAL":26,
						"TEXCOORD_0":27,
						"TEXCOORD_1":28
					},
					"indices":29,
					"material":0
				}
			]
		},
		{
			"name":"Mesh.008",
			"primitives":[
				{
					"attributes":{
						"COLOR_0":30,
						"POSITION":31,
						"NORMAL":32,
						"TEXCOORD_0":33,
						"TEXCOORD_1":34
					},
					"indices":35,
					"material":0
				}
			]
		},
		{
			"name":"Mesh.009",
			"primitives":[
				{
					"attributes":{
						"COLOR_0":36,
						"POSITION":37,
						"NORMAL":38,
						"TEXCOORD_0":39,
						"TEXCOORD_1":40
					},
					"indices":41,
					"material":0
				}
			]
		},
		{
			"name":"Mesh.010",
			"primitives":[
				{
					"attributes":{
						"COLOR_0":42,
						"POSITION":43,
						"NORMAL":44,
						"TEXCOORD_0":45,
						"TEXCOORD_1":46
					},
					"indices":47,
					"material":0
				},
				{
					"attributes":{
						"COLOR_0":48,
						"POSITION":49,
						"NORMAL":50,
						"TEXCOORD_0":51,
						"TEXCOORD_1":52
					},
					"indices":53,
					"material":1
				}
			]
		},
		{
			"name":"Mesh.014",
			"primitives":[
				{
					"attributes":{
						"COLOR_0":54,
						"POSITION":55,
						"NORMAL":56,
						"TEXCOORD_0":57,
						"TEXCOORD_1":58
					},
					"indices":59,
					"material":0
				}
			]
		},
		{
			"name":"Mesh.015",
			"primitives":[
				{
					"attributes":{
						"COLOR_0":60,
						"POSITION":61,
						"NORMAL":62,
						"TEXCOORD_0":63,
						"TEXCOORD_1":64
					},
					"indices":65,
					"material":0
				}
			]
		},
		{
			"name":"Mesh.016",
			"primitives":[
				{
					"attributes":{
						"COLOR_0":66,
						"POSITION":67,
						"NORMAL":68,
						"TEXCOORD_0":69
					},
					"indices":70,
					"material":1
				}
			]
		},
		{
			"name":"Mesh.017",
			"primitives":[
				{
					"attributes":{
						"COLOR_0":71,
						"POSITION":72,
						"NORMAL":73,
						"TEXCOORD_0":74
					},
					"indices":75,
					"material":1
				}
			]
		},
		{
			"name":"Mesh.018",
			"primitives":[
				{
					"attributes":{
						"COLOR_0":76,
						"POSITION":77,
						"NORMAL":78,
						"TEXCOORD_0":79
					},
					"indices":80,
					"material":1
				}
			]
		}
	],
	"textures":[
		{
			"sampler":0,
			"source":0
		},
		{
			"sampler":0,
			"source":0
		}
	],
	"images":[
		{
			"bufferView":6,
			"mimeType":"image/png",
			"name":"Body_Alb"
		}
	],
	"accessors":[
		{
			"bufferView":0,
			"componentType":5123,
			"count":122,
			"normalized":true,
			"type":"VEC4"
		},
		{
			"bufferView":1,
			"componentType":5126,
			"count":122,
			"max":[
				1.8819829225540161,
				12.389312744140625,
				0.4846120774745941
			],
			"min":[
				1.0023267269134521,
				10.97935962677002,
				-0.5730286836624146
			],
			"type":"VEC3"
		},
		{
			"bufferView":2,
			"componentType":5126,
			"count":122,
			"type":"VEC3"
		},
		{
			"bufferView":3,
			"componentType":5126,
			"count":122,
			"type":"VEC2"
		},
		{
			"bufferView":4,
			"componentType":5126,
			"count":122,
			"type":"VEC2"
		},
		{
			"bufferView":5,
			"componentType":5123,
			"count":483,
			"type":"SCALAR"
		},
		{
			"bufferView":7,
			"componentType":5123,
			"count":100,
			"normalized":true,
			"type":"VEC4"
		},
		{
			"bufferView":8,
			"componentType":5126,
			"count":100,
			"max":[
				3.6274309158325195,
				12.255600929260254,
				0.3049440383911133
			],
			"min":[
				1.8109257221221924,
				11.490028381347656,
				-0.45277494192123413
			],
			"type":"VEC3"
		},
		{
			"bufferView":9,
			"componentType":5126,
			"count":100,
			"type":"VEC3"
		},
		{
			"bufferView":10,
			"componentType":5126,
			"count":100,
			"type":"VEC2"
		},
		{
			"bufferView":11,
			"componentType":5126,
			"count":100,
			"type":"VEC2"
		},
		{
			"bufferView":12,
			"componentType":5123,
			"count":426,
			"type":"SCALAR"
		},
		{
			"bufferView":13,
			"componentType":5123,
			"count":796,
			"normalized":true,
			"type":"VEC4"
		},
		{
			"bufferView":14,
			"componentType":5126,
			"count":796,
			"max":[
				7.064403533935547,
				12.151620864868164,
				0.6972885727882385
			],
			"min":[
				3.549941062927246,
				11.489891052246094,
				-0.4051608443260193
			],
			"type":"VEC3"
		},
		{
			"bufferView":15,
			"componentType":5126,
			"count":796,
			"type":"VEC3"
		},
		{
			"bufferView":16,
			"componentType":5126,
			"count":796,
			"type":"VEC2"
		},
		{
			"bufferView":17,
			"componentType":5126,
			"count":796,
			"type":"VEC2"
		},
		{
			"bufferView":18,
			"componentType":5123,
			"count":3582,
			"type":"SCALAR"
		},
		{
			"bufferView":19,
			"componentType":5123,
			"count":99,
			"normalized":true,
			"type":"VEC4"
		},
		{
			"bufferView":20,
			"componentType":5126,
			"count":99,
			"max":[
				-1.0023252964019775,
				12.389311790466309,
				0.4846120774745941
			],
			"min":[
				-1.7013448476791382,
				10.97935962677002,
				-0.5730286836624146
			],
			"type":"VEC3"
		},
		{
			"bufferView":21,
			"componentType":5126,
			"count":99,
			"type":"VEC3"
		},
		{
			"bufferView":22,
			"componentType":5126,
			"count":99,
			"type":"VEC2"
		},
		{
			"bufferView":23,
			"componentType":5126,
			"count":99,
			"type":"VEC2"
		},
		{
			"bufferView":24,
			"componentType":5123,
			"count":390,
			"type":"SCALAR"
		},
		{
			"bufferView":25,
			"componentType":5123,
			"count":113,
			"normalized":true,
			"type":"VEC4"
		},
		{
			"bufferView":26,
			"componentType":5126,
			"count":113,
			"max":[
				-1.614707350730896,
				12.313029289245605,
				0.3215305209159851
			],
			"min":[
				-3.6274309158325195,
				11.490028381347656,
				-0.49902060627937317
			],
			"type":"VEC3"
		},
		{
			"bufferView":27,
			"componentType":5126,
			"count":113,
			"type":"VEC3"
		},
		{
			"bufferView":28,
			"componentType":5126,
			"count":113,
			"type":"VEC2"
		},
		{
			"bufferView":29,
			"componentType":5126,
			"count":113,
			"type":"VEC2"
		},
		{
			"bufferView":30,
			"componentType":5123,
			"count":495,
			"type":"SCALAR"
		},
		{
			"bufferView":31,
			"componentType":5123,
			"count":807,
			"normalized":true,
			"type":"VEC4"
		},
		{
			"bufferView":32,
			"componentType":5126,
			"count":807,
			"max":[
				-3.4923954010009766,
				12.151620864868164,
				0.6972885727882385
			],
			"min":[
				-7.064403057098389,
				11.489891052246094,
				-0.4051608443260193
			],
			"type":"VEC3"
		},
		{
			"bufferView":33,
			"componentType":5126,
			"count":807,
			"type":"VEC3"
		},
		{
			"bufferView":34,
			"componentType":5126,
			"count":807,
			"type":"VEC2"
		},
		{
			"bufferView":35,
			"componentType":5126,
			"count":807,
			"type":"VEC2"
		},
		{
			"bufferView":36,
			"componentType":5123,
			"count":3588,
			"type":"SCALAR"
		},
		{
			"bufferView":37,
			"componentType":5123,
			"count":348,
			"normalized":true,
			"type":"VEC4"
		},
		{
			"bufferView":38,
			"componentType":5126,
			"count":348,
			"max":[
				1.1295875310897827,
				12.538318634033203,
				1.0005029439926147
			],
			"min":[
				-1.1295870542526245,
				9.917227745056152,
				-0.13089610636234283
			],
			"type":"VEC3"
		},
		{
			"bufferView":39,
			"componentType":5126,
			"count":348,
			"type":"VEC3"
		},
		{
			"bufferView":40,
			"componentType":5126,
			"count":348,
			"type":"VEC2"
		},
		{
			"bufferView":41,
			"componentType":5126,
			"count":348,
			"type":"VEC2"
		},
		{
			"bufferView":42,
			"componentType":5123,
			"count":1611,
			"type":"SCALAR"
		},
		{
			"bufferView":43,
			"componentType":5123,
			"count":1149,
			"normalized":true,
			"type":"VEC4"
		},
		{
			"bufferView":44,
			"componentType":5126,
			"count":1149,
			"max":[
				0.8003039360046387,
				14.693248748779297,
				1.1537092924118042
			],
			"min":[
				-0.8003039360046387,
				12.240804672241211,
				-0.6859731078147888
			],
			"type":"VEC3"
		},
		{
			"bufferView":45,
			"componentType":5126,
			"count":1149,
			"type":"VEC3"
		},
		{
			"bufferView":46,
			"componentType":5126,
			"count":1149,
			"type":"VEC2"
		},
		{
			"bufferView":47,
			"componentType":5126,
			"count":1149,
			"type":"VEC2"
		},
		{
			"bufferView":48,
			"componentType":5123,
			"count":5016,
			"type":"SCALAR"
		},
		{
			"bufferView":49,
			"componentType":5123,
			"count":568,
			"normalized":true,
			"type":"VEC4"
		},
		{
			"bufferView":50,
			"componentType":5126,
			"count":568,
			"max":[
				0.7771794199943542,
				14.92110538482666,
				1.0397635698318481
			],
			"min":[
				-0.7782633304595947,
				12.857088088989258,
				-0.8075884580612183
			],
			"type":"VEC3"
		},
		{
			"bufferView":51,
			"componentType":5126,
			"count":568,
			"type":"VEC3"
		},
		{
			"bufferView":52,
			"componentType":5126,
			"count":568,
			"type":"VEC2"
		},
		{
			"bufferView":53,
			"componentType":5126,
			"count":568,
			"type":"VEC2"
		},
		{
			"bufferView":54,
			"componentType":5123,
			"count":2112,
			"type":"SCALAR"
		},
		{
			"bufferView":55,
			"componentType":5123,
			"count":280,
			"normalized":true,
			"type":"VEC4"
		},
		{
			"bufferView":56,
			"componentType":5126,
			"count":280,
			"max":[
				1.1037602424621582,
				12.563825607299805,
				0.16724830865859985
			],
			"min":[
				-1.122196912765503,
				9.907005310058594,
				-0.74864661693573
			],
			"type":"VEC3"
		},
		{
			"bufferView":57,
			"componentType":5126,
			"count":280,
			"type":"VEC3"
		},
		{
			"bufferView":58,
			"componentType":5126,
			"count":280,
			"type":"VEC2"
		},
		{
			"bufferView":59,
			"componentType":5126,
			"count":280,
			"type":"VEC2"
		},
		{
			"bufferView":60,
			"componentType":5123,
			"count":1275,
			"type":"SCALAR"
		},
		{
			"bufferView":61,
			"componentType":5123,
			"count":386,
			"normalized":true,
			"type":"VEC4"
		},
		{
			"bufferView":62,
			"componentType":5126,
			"count":386,
			"max":[
				1.3292903900146484,
				10.218021392822266,
				1.0005029439926147
			],
			"min":[
				-1.3292901515960693,
				8.37691593170166,
				-0.8762359023094177
			],
			"type":"VEC3"
		},
		{
			"bufferView":63,
			"componentType":5126,
			"count":386,
			"type":"VEC3"
		},
		{
			"bufferView":64,
			"componentType":5126,
			"count":386,
			"type":"VEC2"
		},
		{
			"bufferView":65,
			"componentType":5126,
			"count":386,
			"type":"VEC2"
		},
		{
			"bufferView":66,
			"componentType":5123,
			"count":1998,
			"type":"SCALAR"
		},
		{
			"bufferView":67,
			"componentType":5123,
			"count":692,
			"normalized":true,
			"type":"VEC4"
		},
		{
			"bufferView":68,
			"componentType":5126,
			"count":692,
			"max":[
				1.440859317779541,
				9.525890350341797,
				0.9376630187034607
			],
			"min":[
				-1.440859317779541,
				4.875034332275391,
				-0.9238047003746033
			],
			"type":"VEC3"
		},
		{
			"bufferView":69,
			"componentType":5126,
			"count":692,
			"type":"VEC3"
		},
		{
			"bufferView":70,
			"componentType":5126,
			"count":692,
			"type":"VEC2"
		},
		{
			"bufferView":71,
			"componentType":5123,
			"count":3450,
			"type":"SCALAR"
		},
		{
			"bufferView":72,
			"componentType":5123,
			"count":480,
			"normalized":true,
			"type":"VEC4"
		},
		{
			"bufferView":73,
			"componentType":5126,
			"count":480,
			"max":[
				1.212664246559143,
				4.889490127563477,
				0.5631003379821777
			],
			"min":[
				-1.212664246559143,
				0.8192311525344849,
				-0.5816507935523987
			],
			"type":"VEC3"
		},
		{
			"bufferView":74,
			"componentType":5126,
			"count":480,
			"type":"VEC3"
		},
		{
			"bufferView":75,
			"componentType":5126,
			"count":480,
			"type":"VEC2"
		},
		{
			"bufferView":76,
			"componentType":5123,
			"count":1854,
			"type":"SCALAR"
		},
		{
			"bufferView":77,
			"componentType":5123,
			"count":939,
			"normalized":true,
			"type":"VEC4"
		},
		{
			"bufferView":78,
			"componentType":5126,
			"count":939,
			"max":[
				1.1477662324905396,
				0.9703361988067627,
				1.5468623638153076
			],
			"min":[
				-1.147766351699829,
				-0.04872046411037445,
				-0.4584818184375763
			],
			"type":"VEC3"
		},
		{
			"bufferView":79,
			"componentType":5126,
			"count":939,
			"type":"VEC3"
		},
		{
			"bufferView":80,
			"componentType":5126,
			"count":939,
			"type":"VEC2"
		},
		{
			"bufferView":81,
			"componentType":5123,
			"count":3708,
			"type":"SCALAR"
		}
	],
	"bufferViews":[
		{
			"buffer":0,
			"byteLength":976,
			"byteOffset":0,
			"target":34962
		},
		{
			"buffer":0,
			"byteLength":1464,
			"byteOffset":976,
			"target":34962
		},
		{
			"buffer":0,
			"byteLength":1464,
			"byteOffset":2440,
			"target":34962
		},
		{
			"buffer":0,
			"byteLength":976,
			"byteOffset":3904,
			"target":34962
		},
		{
			"buffer":0,
			"byteLength":976,
			"byteOffset":4880,
			"target":34962
		},
		{
			"buffer":0,
			"byteLength":966,
			"byteOffset":5856,
			"target":34963
		},
		{
			"buffer":0,
			"byteLength":2726,
			"byteOffset":6824
		},
		{
			"buffer":0,
			"byteLength":800,
			"byteOffset":9552,
			"target":34962
		},
		{
			"buffer":0,
			"byteLength":1200,
			"byteOffset":10352,
			"target":34962
		},
		{
			"buffer":0,
			"byteLength":1200,
			"byteOffset":11552,
			"target":34962
		},
		{
			"buffer":0,
			"byteLength":800,
			"byteOffset":12752,
			"target":34962
		},
		{
			"buffer":0,
			"byteLength":800,
			"byteOffset":13552,
			"target":34962
		},
		{
			"buffer":0,
			"byteLength":852,
			"byteOffset":14352,
			"target":34963
		},
		{
			"buffer":0,
			"byteLength":6368,
			"byteOffset":15204,
			"target":34962
		},
		{
			"buffer":0,
			"byteLength":9552,
			"byteOffset":21572,
			"target":34962
		},
		{
			"buffer":0,
			"byteLength":9552,
			"byteOffset":31124,
			"target":34962
		},
		{
			"buffer":0,
			"byteLength":6368,
			"byteOffset":40676,
			"target":34962
		},
		{
			"buffer":0,
			"byteLength":6368,
			"byteOffset":47044,
			"target":34962
		},
		{
			"buffer":0,
			"byteLength":7164,
			"byteOffset":53412,
			"target":34963
		},
		{
			"buffer":0,
			"byteLength":792,
			"byteOffset":60576,
			"target":34962
		},
		{
			"buffer":0,
			"byteLength":1188,
			"byteOffset":61368,
			"target":34962
		},
		{
			"buffer":0,
			"byteLength":1188,
			"byteOffset":62556,
			"target":34962
		},
		{
			"buffer":0,
			"byteLength":792,
			"byteOffset":63744,
			"target":34962
		},
		{
			"buffer":0,
			"byteLength":792,
			"byteOffset":64536,
			"target":34962
		},
		{
			"buffer":0,
			"byteLength":780,
			"byteOffset":65328,
			"target":34963
		},
		{
			"buffer":0,
			"byteLength":904,
			"byteOffset":66108,
			"target":34962
		},
		{
			"buffer":0,
			"byteLength":1356,
			"byteOffset":67012,
			"target":34962
		},
		{
			"buffer":0,
			"byteLength":1356,
			"byteOffset":68368,
			"target":34962
		},
		{
			"buffer":0,
			"byteLength":904,
			"byteOffset":69724,
			"target":34962
		},
		{
			"buffer":0,
			"byteLength":904,
			"byteOffset":70628,
			"target":34962
		},
		{
			"buffer":0,
			"byteLength":990,
			"byteOffset":71532,
			"target":34963
		},
		{
			"buffer":0,
			"byteLength":6456,
			"byteOffset":72524,
			"target":34962
		},
		{
			"buffer":0,
			"byteLength":9684,
			"byteOffset":78980,
			"target":34962
		},
		{
			"buffer":0,
			"byteLength":9684,
			"byteOffset":88664,
			"target":34962
		},
		{
			"buffer":0,
			"byteLength":6456,
			"byteOffset":98348,
			"target":34962
		},
		{
			"buffer":0,
			"byteLength":6456,
			"byteOffset":104804,
			"target":34962
		},
		{
			"buffer":0,
			"byteLength":7176,
			"byteOffset":111260,
			"target":34963
		},
		{
			"buffer":0,
			"byteLength":2784,
			"byteOffset":118436,
			"target":34962
		},
		{
			"buffer":0,
			"byteLength":4176,
			"byteOffset":121220,
			"target":34962
		},
		{
			"buffer":0,
			"byteLength":4176,
			"byteOffset":125396,
			"target":34962
		},
		{
			"buffer":0,
			"byteLength":2784,
			"byteOffset":129572,
			"target":34962
		},
		{
			"buffer":0,
			"byteLength":2784,
			"byteOffset":132356,
			"target":34962
		},
		{
			"buffer":0,
			"byteLength":3222,
			"byteOffset":135140,
			"target":34963
		},
		{
			"buffer":0,
			"byteLength":9192,
			"byteOffset":138364,
			"target":34962
		},
		{
			"buffer":0,
			"byteLength":13788,
			"byteOffset":147556,
			"target":34962
		},
		{
			"buffer":0,
			"byteLength":13788,
			"byteOffset":161344,
			"target":34962
		},
		{
			"buffer":0,
			"byteLength":9192,
			"byteOffset":175132,
			"target":34962
		},
		{
			"buffer":0,
			"byteLength":9192,
			"byteOffset":184324,
			"target":34962
		},
		{
			"buffer":0,
			"byteLength":10032,
			"byteOffset":193516,
			"target":34963
		},
		{
			"buffer":0,
			"byteLength":4544,
			"byteOffset":203548,
			"target":34962
		},
		{
			"buffer":0,
			"byteLength":6816,
			"byteOffset":208092,
			"target":34962
		},
		{
			"buffer":0,
			"byteLength":6816,
			"byteOffset":214908,
			"target":34962
		},
		{
			"buffer":0,
			"byteLength":4544,
			"byteOffset":221724,
			"target":34962
		},
		{
			"buffer":0,
			"byteLength":4544,
			"byteOffset":226268,
			"target":34962
		},
		{
			"buffer":0,
			"byteLength":4224,
			"byteOffset":230812,
			"target":34963
		},
		{
			"buffer":0,
			"byteLength":2240,
			"byteOffset":235036,
			"target":34962
		},
		{
			"buffer":0,
			"byteLength":3360,
			"byteOffset":237276,
			"target":34962
		},
		{
			"buffer":0,
			"byteLength":3360,
			"byteOffset":240636,
			"target":34962
		},
		{
			"buffer":0,
			"byteLength":2240,
			"byteOffset":243996,
			"target":34962
		},
		{
			"buffer":0,
			"byteLength":2240,
			"byteOffset":246236,
			"target":34962
		},
		{
			"buffer":0,
			"byteLength":2550,
			"byteOffset":248476,
			"target":34963
		},
		{
			"buffer":0,
			"byteLength":3088,
			"byteOffset":251028,
			"target":34962
		},
		{
			"buffer":0,
			"byteLength":4632,
			"byteOffset":254116,
			"target":34962
		},
		{
			"buffer":0,
			"byteLength":4632,
			"byteOffset":258748,
			"target":34962
		},
		{
			"buffer":0,
			"byteLength":3088,
			"byteOffset":263380,
			"target":34962
		},
		{
			"buffer":0,
			"byteLength":3088,
			"byteOffset":266468,
			"target":34962
		},
		{
			"buffer":0,
			"byteLength":3996,
			"byteOffset":269556,
			"target":34963
		},
		{
			"buffer":0,
			"byteLength":5536,
			"byteOffset":273552,
			"target":34962
		},
		{
			"buffer":0,
			"byteLength":8304,
			"byteOffset":279088,
			"target":34962
		},
		{
			"buffer":0,
			"byteLength":8304,
			"byteOffset":287392,
			"target":34962
		},
		{
			"buffer":0,
			"byteLength":5536,
			"byteOffset":295696,
			"target":34962
		},
		{
			"buffer":0,
			"byteLength":6900,
			"byteOffset":301232,
			"target":34963
		},
		{
			"buffer":0,
			"byteLength":3840,
			"byteOffset":308132,
			"target":34962
		},
		{
			"buffer":0,
			"byteLength":5760,
			"byteOffset":311972,
			"target":34962
		},
		{
			"buffer":0,
			"byteLength":5760,
			"byteOffset":317732,
			"target":34962
		},
		{
			"buffer":0,
			"byteLength":3840,
			"byteOffset":323492,
			"target":34962
		},
		{
			"buffer":0,
			"byteLength":3708,
			"byteOffset":327332,
			"target":34963
		},
		{
			"buffer":0,
			"byteLength":7512,
			"byteOffset":331040,
			"target":34962
		},
		{
			"buffer":0,
			"byteLength":11268,
			"byteOffset":338552,
			"target":34962
		},
		{
			"buffer":0,
			"byteLength":11268,
			"byteOffset":349820,
			"target":34962
		},
		{
			"buffer":0,
			"byteLength":7512,
			"byteOffset":361088,
			"target":34962
		},
		{
			"buffer":0,
			"byteLength":7416,
			"byteOffset":368600,
			"target":34963
		}
	],
	"samplers":[
		{
			"magFilter":9729,
			"minFilter":9987
		}
	],
	"buffers":[
		{
			"byteLength":376016,
			"uri":"data:application/octet-stream;base64,"
		}
	]
}
