<svg version="1.1" viewBox="0.0 0.0 1358.4120734908136 266.7191601049869" fill="none" stroke="none" stroke-linecap="square" stroke-miterlimit="10" xmlns:xlink="http://www.w3.org/1999/xlink" xmlns="http://www.w3.org/2000/svg"><clipPath id="p.0"><path d="m0 0l1358.4121 0l0 266.71915l-1358.4121 0l0 -266.71915z" clip-rule="nonzero"/></clipPath><g clip-path="url(#p.0)"><path fill="#000000" fill-opacity="0.0" d="m0 0l1358.4121 0l0 266.71915l-1358.4121 0z" fill-rule="evenodd"/><path fill="#fff2cc" d="m13.286089 11.950131l196.8189 0l0 236.69292l-196.8189 0z" fill-rule="evenodd"/><path stroke="#000000" stroke-width="1.0" stroke-linejoin="round" stroke-linecap="butt" d="m13.286089 11.950131l196.8189 0l0 236.69292l-196.8189 0z" fill-rule="evenodd"/><path fill="#000000" d="m98.81562 34.18263l1.765625 0.453125q-0.5625 2.171875 -2.0 3.328125q-1.4375 1.140625 -3.53125 1.140625q-2.15625 0 -3.515625 -0.875q-1.34375 -0.890625 -2.0625 -2.546875q-0.703125 -1.671875 -0.703125 -3.59375q0 -2.078125 0.796875 -3.625q0.796875 -1.5625 2.265625 -2.359375q1.484375 -0.8125 3.25 -0.8125q2.0 0 3.359375 1.015625q1.375 1.015625 1.90625 2.875l-1.734375 0.40625q-0.46875 -1.453125 -1.359375 -2.109375q-0.875 -0.671875 -2.203125 -0.671875q-1.546875 0 -2.578125 0.734375q-1.03125 0.734375 -1.453125 1.984375q-0.421875 1.234375 -0.421875 2.5625q0 1.703125 0.5 2.96875q0.5 1.265625 1.546875 1.90625q1.046875 0.625 2.265625 0.625q1.484375 0 2.515625 -0.859375q1.03125 -0.859375 1.390625 -2.546875zm3.6916962 4.6875l0 -13.359375l1.640625 0l0 13.359375l-1.640625 0zm4.191696 -11.46875l0 -1.890625l1.640625 0l0 1.890625l-1.640625 0zm0 11.46875l0 -9.671875l1.640625 0l0 9.671875l-1.640625 0zm10.769821 -3.109375l1.6875 0.203125q-0.40625 1.484375 -1.484375 2.3125q-1.078125 0.8125 -2.765625 0.8125q-2.125 0 -3.375 -1.296875q-1.234375 -1.3125 -1.234375 -3.671875q0 -2.453125 1.25 -3.796875q1.265625 -1.34375 3.265625 -1.34375q1.9375 0 3.15625 1.328125q1.234375 1.3125 1.234375 3.703125q0 0.15625 0 0.4375l-7.21875 0q0.09375 1.59375 0.90625 2.453125q0.8125 0.84375 2.015625 0.84375q0.90625 0 1.546875 -0.46875q0.640625 -0.484375 1.015625 -1.515625zm-5.390625 -2.65625l5.40625 0q-0.109375 -1.21875 -0.625 -1.828125q-0.78125 -0.953125 -2.03125 -0.953125q-1.125 0 -1.90625 0.765625q-0.765625 0.75 -0.84375 2.015625zm9.141342 5.765625l0 -9.671875l1.46875 0l0 1.375q1.0625 -1.59375 3.078125 -1.59375q0.875 0 1.609375 0.3125q0.7343826 0.3125 1.0937576 0.828125q0.375 0.5 0.515625 1.203125q0.09375 0.453125 0.09375 1.59375l0 5.953125l-1.6406326 0l0 -5.890625q0 -1.0 -0.203125 -1.484375q-0.1875 -0.5 -0.671875 -0.796875q-0.484375 -0.296875 -1.140625 -0.296875q-1.046875 0 -1.8125 0.671875q-0.75 0.65625 -0.75 2.515625l0 5.28125l-1.640625 0zm13.95385 -1.46875l0.234375 1.453125q-0.6875 0.140625 -1.234375 0.140625q-0.890625 0 -1.390625 -0.28125q-0.484375 -0.28125 -0.6875 -0.734375q-0.203125 -0.46875 -0.203125 -1.9375l0 -5.578125l-1.203125 0l0 -1.265625l1.203125 0l0 -2.390625l1.625 -0.984375l0 3.375l1.65625 0l0 1.265625l-1.65625 0l0 5.671875q0 0.6875 0.078125 0.890625q0.09375 0.203125 0.28125 0.328125q0.203125 0.109375 0.578125 0.109375q0.265625 0 0.71875 -0.0625z" fill-rule="nonzero"/><path fill="#cfe2f3" d="m39.034122 53.472443l145.32283 0l0 177.73228l-145.32283 0z" fill-rule="evenodd"/><path stroke="#000000" stroke-width="1.0" stroke-linejoin="round" stroke-linecap="butt" d="m39.034122 53.472443l145.32283 0l0 177.73228l-145.32283 0z" fill-rule="evenodd"/><path fill="#000000" d="m63.663216 115.45859l0 -11.78125l-4.40625 0l0 -1.578125l10.578125 0l0 1.578125l-4.40625 0l0 11.78125l-1.765625 0zm7.786606 0l0 -13.359375l1.640625 0l0 4.796875q1.140625 -1.328125 2.890625 -1.328125q1.078125 0 1.859375 0.421875q0.796875 0.421875 1.140625 1.171875q0.34375 0.75 0.34375 2.171875l0 6.125l-1.640625 0l0 -6.125q0 -1.234375 -0.53125 -1.796875q-0.53125 -0.5625 -1.515625 -0.5625q-0.71875 0 -1.359375 0.390625q-0.640625 0.375 -0.921875 1.015625q-0.265625 0.640625 -0.265625 1.78125l0 5.296875l-1.640625 0zm17.000717 -3.109375l1.6875 0.203125q-0.40625 1.484375 -1.484375 2.3125q-1.078125 0.8125 -2.765625 0.8125q-2.125 0 -3.375 -1.296875q-1.234375 -1.3125 -1.234375 -3.671875q0 -2.453125 1.25 -3.796875q1.265625 -1.34375 3.265625 -1.34375q1.9375 0 3.15625 1.328125q1.234375 1.3125 1.234375 3.703125q0 0.15625 0 0.4375l-7.21875 0q0.09375 1.59375 0.90625 2.453125q0.8125 0.84375 2.015625 0.84375q0.90625 0 1.546875 -0.46875q0.640625 -0.484375 1.015625 -1.515625zm-5.390625 -2.65625l5.40625 0q-0.109375 -1.21875 -0.625 -1.828125q-0.78125 -0.953125 -2.03125 -0.953125q-1.125 0 -1.90625 0.765625q-0.765625 0.75 -0.84375 2.015625zm14.449646 5.765625l0 -13.359375l5.015625 0q1.5312424 0 2.4531174 0.40625q0.921875 0.40625 1.4375 1.25q0.53125 0.84375 0.53125 1.765625q0 0.859375 -0.46875 1.625q-0.453125 0.75 -1.390625 1.203125q1.203125 0.359375 1.859375 1.21875q0.65625 0.859375 0.65625 2.015625q0 0.9375 -0.40625 1.75q-0.390625 0.796875 -0.984375 1.234375q-0.578125 0.4375 -1.453125 0.671875q-0.875 0.21875 -2.1562424 0.21875l-5.09375 0zm1.78125 -7.75l2.875 0q1.1874924 0 1.6874924 -0.140625q0.671875 -0.203125 1.015625 -0.671875q0.34375 -0.46875 0.34375 -1.171875q0 -0.65625 -0.328125 -1.15625q-0.3125 -0.515625 -0.90625 -0.703125q-0.59375 -0.1875 -2.0312424 -0.1875l-2.65625 0l0 4.03125zm0 6.171875l3.3125 0q0.8593674 0 1.2031174 -0.0625q0.609375 -0.109375 1.015625 -0.359375q0.421875 -0.265625 0.6875 -0.75q0.265625 -0.484375 0.265625 -1.125q0 -0.75 -0.390625 -1.296875q-0.375 -0.546875 -1.0625 -0.765625q-0.671875 -0.234375 -1.9531174 -0.234375l-3.078125 0l0 4.59375zm10.52169 1.578125l0 -9.671875l1.46875 0l0 1.46875q0.5625 -1.03125 1.03125 -1.359375q0.484375 -0.328125 1.0625 -0.328125q0.828125 0 1.6875 0.53125l-0.5625 1.515625q-0.609375 -0.359375 -1.203125 -0.359375q-0.546875 0 -0.96875 0.328125q-0.421875 0.328125 -0.609375 0.890625q-0.28125 0.875 -0.28125 1.921875l0 5.0625l-1.625 0zm5.618927 -4.84375q0 -2.6875 1.484375 -3.96875q1.25 -1.078125 3.046875 -1.078125q2.0 0 3.265625 1.3125q1.265625 1.296875 1.265625 3.609375q0 1.859375 -0.5625 2.9375q-0.5625 1.0625 -1.640625 1.65625q-1.0625 0.59375 -2.328125 0.59375q-2.03125 0 -3.28125 -1.296875q-1.25 -1.3125 -1.25 -3.765625zm1.6875 0q0 1.859375 0.796875 2.796875q0.8125 0.921875 2.046875 0.921875q1.21875 0 2.03125 -0.921875q0.8125 -0.9375 0.8125 -2.84375q0 -1.796875 -0.8125 -2.71875q-0.8125 -0.921875 -2.03125 -0.921875q-1.234375 0 -2.046875 0.921875q-0.796875 0.90625 -0.796875 2.765625zm11.078842 4.84375l-2.96875 -9.671875l1.703125 0l1.53125 5.578125l0.578125 2.078125q0.046875 -0.15625 0.5 -2.0l1.546875 -5.65625l1.6875 0l1.4375 5.609375l0.484375 1.84375l0.5625 -1.859375l1.65625 -5.59375l1.59375 0l-3.03125 9.671875l-1.703125 0l-1.53125 -5.796875l-0.375 -1.640625l-1.953125 7.4375l-1.71875 0zm11.035446 -2.890625l1.625 -0.25q0.125 0.96875 0.75 1.5q0.625 0.515625 1.75 0.515625q1.125 0 1.671875 -0.453125q0.546875 -0.46875 0.546875 -1.09375q0 -0.546875 -0.484375 -0.875q-0.328125 -0.21875 -1.671875 -0.546875q-1.8125 -0.46875 -2.515625 -0.796875q-0.6875 -0.328125 -1.046875 -0.90625q-0.359375 -0.59375 -0.359375 -1.3125q0 -0.640625 0.296875 -1.1875q0.296875 -0.5625 0.8125 -0.921875q0.375 -0.28125 1.03125 -0.46875q0.671875 -0.203125 1.421875 -0.203125q1.140625 0 2.0 0.328125q0.859375 0.328125 1.265625 0.890625q0.421875 0.5625 0.578125 1.5l-1.609375 0.21875q-0.109375 -0.75 -0.640625 -1.171875q-0.515625 -0.421875 -1.46875 -0.421875q-1.140625 0 -1.625 0.375q-0.46875 0.375 -0.46875 0.875q0 0.3125 0.1875 0.578125q0.203125 0.265625 0.640625 0.4375q0.234375 0.09375 1.4375 0.421875q1.75 0.453125 2.4375 0.75q0.6875 0.296875 1.078125 0.859375q0.390625 0.5625 0.390625 1.40625q0 0.828125 -0.484375 1.546875q-0.46875 0.71875 -1.375 1.125q-0.90625 0.390625 -2.046875 0.390625q-1.875 0 -2.875 -0.78125q-0.984375 -0.78125 -1.25 -2.328125zm16.609375 -0.21875l1.6875 0.203125q-0.40625 1.484375 -1.484375 2.3125q-1.078125 0.8125 -2.765625 0.8125q-2.125 0 -3.375 -1.296875q-1.234375 -1.3125 -1.234375 -3.671875q0 -2.453125 1.25 -3.796875q1.265625 -1.34375 3.265625 -1.34375q1.9375 0 3.15625 1.328125q1.234375 1.3125 1.234375 3.703125q0 0.15625 0 0.4375l-7.21875 0q0.09375 1.59375 0.90625 2.453125q0.8125 0.84375 2.015625 0.84375q0.90625 0 1.546875 -0.46875q0.640625 -0.484375 1.015625 -1.515625zm-5.390625 -2.65625l5.40625 0q-0.109375 -1.21875 -0.625 -1.828125q-0.78125 -0.953125 -2.03125 -0.953125q-1.125 0 -1.90625 0.765625q-0.765625 0.75 -0.84375 2.015625zm9.125717 5.765625l0 -9.671875l1.46875 0l0 1.46875q0.5625 -1.03125 1.03125 -1.359375q0.484375 -0.328125 1.0625 -0.328125q0.828125 0 1.6875 0.53125l-0.5625 1.515625q-0.609375 -0.359375 -1.203125 -0.359375q-0.546875 0 -0.96875 0.328125q-0.421875 0.328125 -0.609375 0.890625q-0.28125 0.875 -0.28125 1.921875l0 5.0625l-1.625 0z" fill-rule="nonzero"/><path fill="#000000" d="m66.23723 137.85858l0 -9.671875l1.46875 0l0 1.46875q0.5625 -1.03125 1.03125 -1.359375q0.484375 -0.328125 1.0625 -0.328125q0.828125 0 1.6875 0.53125l-0.5625 1.515625q-0.609375 -0.359375 -1.203125 -0.359375q-0.546875 0 -0.96875 0.328125q-0.421875 0.328125 -0.609375 0.890625q-0.28125 0.875 -0.28125 1.921875l0 5.0625l-1.625 0zm12.556427 0l0 -1.421875q-1.125 1.640625 -3.0625 1.640625q-0.859375 0 -1.609375 -0.328125q-0.734375 -0.328125 -1.09375 -0.828125q-0.359375 -0.5 -0.5 -1.21875q-0.109375 -0.46875 -0.109375 -1.53125l0 -5.984375l1.640625 0l0 5.359375q0 1.28125 0.109375 1.734375q0.15625 0.640625 0.65625 1.015625q0.5 0.375 1.234375 0.375q0.734375 0 1.375 -0.375q0.65625 -0.390625 0.921875 -1.03125q0.265625 -0.65625 0.265625 -1.890625l0 -5.1875l1.640625 0l0 9.671875l-1.46875 0zm4.047592 0l0 -9.671875l1.46875 0l0 1.375q1.0625 -1.59375 3.078125 -1.59375q0.875 0 1.609375 0.3125q0.734375 0.3125 1.09375 0.828125q0.375 0.5 0.515625 1.203125q0.09375 0.453125 0.09375 1.59375l0 5.953125l-1.640625 0l0 -5.890625q0 -1.0 -0.203125 -1.484375q-0.1875 -0.5 -0.671875 -0.796875q-0.484375 -0.296875 -1.140625 -0.296875q-1.046875 0 -1.8125 0.671875q-0.75 0.65625 -0.75 2.515625l0 5.28125l-1.640625 0zm10.375717 0l0 -9.671875l1.46875 0l0 1.375q1.0625 -1.59375 3.078125 -1.59375q0.875 0 1.609375 0.3125q0.734375 0.3125 1.09375 0.828125q0.375 0.5 0.515625 1.203125q0.09375 0.453125 0.09375 1.59375l0 5.953125l-1.640625 0l0 -5.890625q0 -1.0 -0.203125 -1.484375q-0.1875 -0.5 -0.671875 -0.796875q-0.484375 -0.296875 -1.140625 -0.296875q-1.046875 0 -1.8125 0.671875q-0.75 0.65625 -0.75 2.515625l0 5.28125l-1.640625 0zm10.375717 -11.46875l0 -1.890625l1.640625 0l0 1.890625l-1.640625 0zm0 11.46875l0 -9.671875l1.640625 0l0 9.671875l-1.640625 0zm4.144821 0l0 -9.671875l1.46875 0l0 1.375q1.0625 -1.59375 3.078125 -1.59375q0.875 0 1.609375 0.3125q0.734375 0.3125 1.09375 0.828125q0.375 0.5 0.515625 1.203125q0.09375 0.453125 0.09375 1.59375l0 5.953125l-1.640625 0l0 -5.890625q0 -1.0 -0.203125 -1.484375q-0.1875 -0.5 -0.671875 -0.796875q-0.484375 -0.296875 -1.140625 -0.296875q-1.046875 0 -1.8125 0.671875q-0.75 0.65625 -0.75 2.515625l0 5.28125l-1.640625 0zm10.063217 0.796875l1.59375 0.234375q0.109375 0.75 0.5625 1.078125q0.609375 0.453125 1.671875 0.453125q1.140625 0 1.75 -0.453125q0.625 -0.453125 0.84375 -1.265625q0.125 -0.5 0.109375 -2.109375q-1.0625 1.265625 -2.671875 1.265625q-2.0 0 -3.09375 -1.4375q-1.09375 -1.4375 -1.09375 -3.453125q0 -1.390625 0.5 -2.5625q0.515625 -1.171875 1.453125 -1.796875q0.953125 -0.640625 2.25 -0.640625q1.703125 0 2.8125 1.375l0 -1.15625l1.515625 0l0 8.359375q0 2.265625 -0.46875 3.203125q-0.453125 0.9375 -1.453125 1.484375q-0.984375 0.546875 -2.453125 0.546875q-1.71875 0 -2.796875 -0.78125q-1.0625 -0.765625 -1.03125 -2.34375zm1.359375 -5.8125q0 1.90625 0.75 2.78125q0.765625 0.875 1.90625 0.875q1.125 0 1.890625 -0.859375q0.765625 -0.875 0.765625 -2.734375q0 -1.78125 -0.796875 -2.671875q-0.78125 -0.90625 -1.890625 -0.90625q-1.09375 0 -1.859375 0.890625q-0.765625 0.875 -0.765625 2.625zm18.090271 3.546875l0.234375 1.453125q-0.6875 0.140625 -1.234375 0.140625q-0.890625 0 -1.390625 -0.28125q-0.484375 -0.28125 -0.6875 -0.734375q-0.203125 -0.46875 -0.203125 -1.9375l0 -5.578125l-1.203125 0l0 -1.265625l1.203125 0l0 -2.390625l1.625 -0.984375l0 3.375l1.65625 0l0 1.265625l-1.65625 0l0 5.671875q0 0.6875 0.078125 0.890625q0.09375 0.203125 0.28125 0.328125q0.203125 0.109375 0.578125 0.109375q0.265625 0 0.71875 -0.0625zm1.6051788 1.46875l0 -13.359375l1.640625 0l0 4.796875q1.140625 -1.328125 2.890625 -1.328125q1.078125 0 1.859375 0.421875q0.796875 0.421875 1.140625 1.171875q0.34375 0.75 0.34375 2.171875l0 6.125l-1.640625 0l0 -6.125q0 -1.234375 -0.53125 -1.796875q-0.53125 -0.5625 -1.515625 -0.5625q-0.71875 0 -1.359375 0.390625q-0.640625 0.375 -0.921875 1.015625q-0.265625 0.640625 -0.265625 1.78125l0 5.296875l-1.640625 0zm17.000717 -3.109375l1.6875 0.203125q-0.40625 1.484375 -1.484375 2.3125q-1.078125 0.8125 -2.765625 0.8125q-2.125 0 -3.375 -1.296875q-1.234375 -1.3125 -1.234375 -3.671875q0 -2.453125 1.25 -3.796875q1.265625 -1.34375 3.265625 -1.34375q1.9375 0 3.15625 1.328125q1.234375 1.3125 1.234375 3.703125q0 0.15625 0 0.4375l-7.21875 0q0.09375 1.59375 0.90625 2.453125q0.8125 0.84375 2.015625 0.84375q0.90625 0 1.546875 -0.46875q0.640625 -0.484375 1.015625 -1.515625zm-5.390625 -2.65625l5.40625 0q-0.109375 -1.21875 -0.625 -1.828125q-0.78125 -0.953125 -2.03125 -0.953125q-1.125 0 -1.90625 0.765625q-0.765625 0.75 -0.84375 2.015625z" fill-rule="nonzero"/><path fill="#000000" d="m79.091606 160.25858l0 -8.40625l-1.453125 0l0 -1.265625l1.453125 0l0 -1.03125q0 -0.96875 0.171875 -1.453125q0.234375 -0.640625 0.828125 -1.03125q0.59375 -0.390625 1.671875 -0.390625q0.6875 0 1.53125 0.15625l-0.25 1.4375q-0.5 -0.09375 -0.953125 -0.09375q-0.75 0 -1.0625 0.328125q-0.3125 0.3125 -0.3125 1.1875l0 0.890625l1.890625 0l0 1.265625l-1.890625 0l0 8.40625l-1.625 0zm4.777054 0l0 -9.671875l1.46875 0l0 1.46875q0.5625 -1.03125 1.03125 -1.359375q0.484375 -0.328125 1.0625 -0.328125q0.828125 0 1.6875 0.53125l-0.5625 1.515625q-0.609375 -0.359375 -1.203125 -0.359375q-0.546875 0 -0.96875 0.328125q-0.421875 0.328125 -0.609375 0.890625q-0.28125 0.875 -0.28125 1.921875l0 5.0625l-1.625 0zm5.618927 -4.84375q0 -2.6875 1.484375 -3.96875q1.25 -1.078125 3.046875 -1.078125q2.0 0 3.265625 1.3125q1.265625 1.296875 1.265625 3.609375q0 1.859375 -0.5625 2.9375q-0.5625 1.0625 -1.640625 1.65625q-1.0625 0.59375 -2.328125 0.59375q-2.03125 0 -3.28125 -1.296875q-1.25 -1.3125 -1.25 -3.765625zm1.6875 0q0 1.859375 0.796875 2.796875q0.8125 0.921875 2.046875 0.921875q1.21875 0 2.03125 -0.921875q0.8125 -0.9375 0.8125 -2.84375q0 -1.796875 -0.8125 -2.71875q-0.8125 -0.921875 -2.03125 -0.921875q-1.234375 0 -2.046875 0.921875q-0.796875 0.90625 -0.796875 2.765625zm9.297592 4.84375l0 -9.671875l1.46875 0l0 1.375q1.0625 -1.59375 3.0781174 -1.59375q0.875 0 1.609375 0.3125q0.734375 0.3125 1.09375 0.828125q0.375 0.5 0.515625 1.203125q0.09375 0.453125 0.09375 1.59375l0 5.953125l-1.640625 0l0 -5.890625q0 -1.0 -0.203125 -1.484375q-0.1875 -0.5 -0.671875 -0.796875q-0.484375 -0.296875 -1.140625 -0.296875q-1.046875 0 -1.8124924 0.671875q-0.75 0.65625 -0.75 2.515625l0 5.28125l-1.640625 0zm13.953835 -1.46875l0.234375 1.453125q-0.6875 0.140625 -1.234375 0.140625q-0.890625 0 -1.390625 -0.28125q-0.484375 -0.28125 -0.6875 -0.734375q-0.203125 -0.46875 -0.203125 -1.9375l0 -5.578125l-1.203125 0l0 -1.265625l1.203125 0l0 -2.390625l1.625 -0.984375l0 3.375l1.65625 0l0 1.265625l-1.65625 0l0 5.671875q0 0.6875 0.078125 0.890625q0.09375 0.203125 0.28125 0.328125q0.203125 0.109375 0.578125 0.109375q0.265625 0 0.71875 -0.0625zm8.230179 -1.640625l1.6875 0.203125q-0.40625 1.484375 -1.484375 2.3125q-1.078125 0.8125 -2.765625 0.8125q-2.125 0 -3.375 -1.296875q-1.234375 -1.3125 -1.234375 -3.671875q0 -2.453125 1.25 -3.796875q1.265625 -1.34375 3.265625 -1.34375q1.9375 0 3.15625 1.328125q1.234375 1.3125 1.234375 3.703125q0 0.15625 0 0.4375l-7.21875 0q0.09375 1.59375 0.90625 2.453125q0.8125 0.84375 2.015625 0.84375q0.90625 0 1.546875 -0.46875q0.640625 -0.484375 1.015625 -1.515625zm-5.390625 -2.65625l5.40625 0q-0.109375 -1.21875 -0.625 -1.828125q-0.78125 -0.953125 -2.03125 -0.953125q-1.125 0 -1.90625 0.765625q-0.765625 0.75 -0.84375 2.015625zm9.141342 5.765625l0 -9.671875l1.46875 0l0 1.375q1.0625 -1.59375 3.078125 -1.59375q0.875 0 1.609375 0.3125q0.734375 0.3125 1.09375 0.828125q0.375 0.5 0.515625 1.203125q0.09375 0.453125 0.09375 1.59375l0 5.953125l-1.640625 0l0 -5.890625q0 -1.0 -0.203125 -1.484375q-0.1875 -0.5 -0.671875 -0.796875q-0.484375 -0.296875 -1.140625 -0.296875q-1.046875 0 -1.8125 0.671875q-0.75 0.65625 -0.75 2.515625l0 5.28125l-1.640625 0zm16.641342 0l0 -1.21875q-0.90625 1.4375 -2.703125 1.4375q-1.15625 0 -2.125 -0.640625q-0.96875 -0.640625 -1.5 -1.78125q-0.53125 -1.140625 -0.53125 -2.625q0 -1.453125 0.484375 -2.625q0.484375 -1.1875 1.4375 -1.8125q0.96875 -0.625 2.171875 -0.625q0.875 0 1.546875 0.375q0.6875 0.359375 1.109375 0.953125l0 -4.796875l1.640625 0l0 13.359375l-1.53125 0zm-5.171875 -4.828125q0 1.859375 0.78125 2.78125q0.78125 0.921875 1.84375 0.921875q1.078125 0 1.828125 -0.875q0.75 -0.890625 0.75 -2.6875q0 -1.984375 -0.765625 -2.90625q-0.765625 -0.9375 -1.890625 -0.9375q-1.078125 0 -1.8125 0.890625q-0.734375 0.890625 -0.734375 2.8125z" fill-rule="nonzero"/><path fill="#000000" d="m74.64232 181.47107q-0.921875 0.765625 -1.765625 1.09375q-0.828125 0.3125 -1.796875 0.3125q-1.59375 0 -2.453125 -0.78125q-0.859375 -0.78125 -0.859375 -1.984375q0 -0.71875 0.328125 -1.296875q0.328125 -0.59375 0.84375 -0.9375q0.53125 -0.359375 1.1875 -0.546875q0.46875 -0.125 1.453125 -0.25q1.984375 -0.234375 2.921875 -0.5625q0.015625 -0.34375 0.015625 -0.421875q0 -1.0 -0.46875 -1.421875q-0.625 -0.546875 -1.875 -0.546875q-1.15625 0 -1.703125 0.40625q-0.546875 0.40625 -0.8125 1.421875l-1.609375 -0.21875q0.21875 -1.015625 0.71875 -1.640625q0.5 -0.640625 1.453125 -0.984375q0.953125 -0.34375 2.1875 -0.34375q1.25 0 2.015625 0.296875q0.78125 0.28125 1.140625 0.734375q0.375 0.4375 0.515625 1.109375q0.078125 0.421875 0.078125 1.515625l0 2.1875q0 2.28125 0.109375 2.890625q0.109375 0.59375 0.40625 1.15625l-1.703125 0q-0.265625 -0.515625 -0.328125 -1.1875zm-0.140625 -3.671875q-0.890625 0.375 -2.671875 0.625q-1.015625 0.140625 -1.4375 0.328125q-0.421875 0.1875 -0.65625 0.53125q-0.21875 0.34375 -0.21875 0.78125q0 0.65625 0.5 1.09375q0.5 0.4375 1.453125 0.4375q0.9375 0 1.671875 -0.40625q0.75 -0.421875 1.09375 -1.140625q0.265625 -0.5625 0.265625 -1.640625l0 -0.609375zm4.203842 8.5625l0 -13.375l1.484375 0l0 1.25q0.53125 -0.734375 1.1875 -1.09375q0.671875 -0.375 1.625 -0.375q1.234375 0 2.171875 0.640625q0.953125 0.625 1.4375 1.796875q0.484375 1.15625 0.484375 2.546875q0 1.484375 -0.53125 2.671875q-0.53125 1.1875 -1.546875 1.828125q-1.015625 0.625 -2.140625 0.625q-0.8125 0 -1.46875 -0.34375q-0.65625 -0.34375 -1.0625 -0.875l0 4.703125l-1.640625 0zm1.484375 -8.484375q0 1.859375 0.75 2.765625q0.765625 0.890625 1.828125 0.890625q1.09375 0 1.875 -0.921875q0.78125 -0.9375 0.78125 -2.875q0 -1.84375 -0.765625 -2.765625q-0.75 -0.921875 -1.8125 -0.921875q-1.046875 0 -1.859375 0.984375q-0.796875 0.96875 -0.796875 2.84375zm8.891342 8.484375l0 -13.375l1.484375 0l0 1.25q0.53125 -0.734375 1.1875 -1.09375q0.671875 -0.375 1.625 -0.375q1.234375 0 2.171875 0.640625q0.953125 0.625 1.4375 1.796875q0.484375 1.15625 0.484375 2.546875q0 1.484375 -0.53125 2.671875q-0.53125 1.1875 -1.546875 1.828125q-1.015625 0.625 -2.140625 0.625q-0.8125 0 -1.46875 -0.34375q-0.65625 -0.34375 -1.0625 -0.875l0 4.703125l-1.640625 0zm1.484375 -8.484375q0 1.859375 0.75 2.765625q0.765625 0.890625 1.828125 0.890625q1.09375 0 1.875 -0.921875q0.78125 -0.9375 0.78125 -2.875q0 -1.84375 -0.765625 -2.765625q-0.75 -0.921875 -1.8125 -0.921875q-1.046875 0 -1.859375 0.984375q-0.796875 0.96875 -0.796875 2.84375zm8.844467 4.78125l0 -13.359375l1.640625 0l0 13.359375l-1.640625 0zm4.191696 -11.46875l0 -1.890625l1.640625 0l0 1.890625l-1.640625 0zm0 11.46875l0 -9.671875l1.640625 0l0 9.671875l-1.640625 0zm10.457321 -3.546875l1.609375 0.21875q-0.265625 1.65625 -1.359375 2.609375q-1.078125 0.9375 -2.671875 0.9375q-1.984375 0 -3.1875 -1.296875q-1.203125 -1.296875 -1.203125 -3.71875q0 -1.578125 0.515625 -2.75q0.515625 -1.171875 1.578125 -1.75q1.0625 -0.59375 2.3125 -0.59375q1.578125 0 2.578125 0.796875q1.0 0.796875 1.28125 2.265625l-1.59375 0.234375q-0.234375 -0.96875 -0.8125 -1.453125q-0.578125 -0.5 -1.390625 -0.5q-1.234375 0 -2.015625 0.890625q-0.78125 0.890625 -0.78125 2.8125q0 1.953125 0.75 2.84375q0.75 0.875 1.953125 0.875q0.96875 0 1.609375 -0.59375q0.65625 -0.59375 0.828125 -1.828125zm9.328125 2.359375q-0.921875 0.765625 -1.765625 1.09375q-0.828125 0.3125 -1.796875 0.3125q-1.59375 0 -2.453125 -0.78125q-0.859375 -0.78125 -0.859375 -1.984375q0 -0.71875 0.328125 -1.296875q0.328125 -0.59375 0.84375 -0.9375q0.53125 -0.359375 1.1875 -0.546875q0.46875 -0.125 1.453125 -0.25q1.984375 -0.234375 2.921875 -0.5625q0.015625 -0.34375 0.015625 -0.421875q0 -1.0 -0.46875 -1.421875q-0.625 -0.546875 -1.875 -0.546875q-1.15625 0 -1.703125 0.40625q-0.546875 0.40625 -0.8125 1.421875l-1.609375 -0.21875q0.21875 -1.015625 0.71875 -1.640625q0.5 -0.640625 1.453125 -0.984375q0.953125 -0.34375 2.1875 -0.34375q1.25 0 2.015625 0.296875q0.78125 0.28125 1.140625 0.734375q0.375 0.4375 0.515625 1.109375q0.078125 0.421875 0.078125 1.515625l0 2.1875q0 2.28125 0.109375 2.890625q0.109375 0.59375 0.40625 1.15625l-1.703125 0q-0.265625 -0.515625 -0.328125 -1.1875zm-0.140625 -3.671875q-0.890625 0.375 -2.671875 0.625q-1.015625 0.140625 -1.4375 0.328125q-0.421875 0.1875 -0.65625 0.53125q-0.21875 0.34375 -0.21875 0.78125q0 0.65625 0.5 1.09375q0.5 0.4375 1.453125 0.4375q0.9375 0 1.671875 -0.40625q0.75 -0.421875 1.09375 -1.140625q0.265625 -0.5625 0.265625 -1.640625l0 -0.609375zm7.781967 3.390625l0.234375 1.453125q-0.6875 0.140625 -1.234375 0.140625q-0.890625 0 -1.390625 -0.28125q-0.484375 -0.28125 -0.6875 -0.734375q-0.203125 -0.46875 -0.203125 -1.9375l0 -5.578125l-1.203125 0l0 -1.265625l1.203125 0l0 -2.390625l1.625 -0.984375l0 3.375l1.65625 0l0 1.265625l-1.65625 0l0 5.671875q0 0.6875 0.078125 0.890625q0.09375 0.203125 0.28125 0.328125q0.203125 0.109375 0.578125 0.109375q0.265625 0 0.71875 -0.0625zm1.6051788 -10.0l0 -1.890625l1.640625 0l0 1.890625l-1.640625 0zm0 11.46875l0 -9.671875l1.640625 0l0 9.671875l-1.640625 0zm3.5354462 -4.84375q0 -2.6875 1.484375 -3.96875q1.25 -1.078125 3.046875 -1.078125q2.0 0 3.265625 1.3125q1.265625 1.296875 1.265625 3.609375q0 1.859375 -0.5625 2.9375q-0.5625 1.0625 -1.640625 1.65625q-1.0625 0.59375 -2.328125 0.59375q-2.03125 0 -3.28125 -1.296875q-1.25 -1.3125 -1.25 -3.765625zm1.6875 0q0 1.859375 0.796875 2.796875q0.8125 0.921875 2.046875 0.921875q1.21875 0 2.03125 -0.921875q0.8125 -0.9375 0.8125 -2.84375q0 -1.796875 -0.8125 -2.71875q-0.8125 -0.921875 -2.03125 -0.921875q-1.234375 0 -2.046875 0.921875q-0.796875 0.90625 -0.796875 2.765625zm9.297592 4.84375l0 -9.671875l1.46875 0l0 1.375q1.0625 -1.59375 3.078125 -1.59375q0.875 0 1.609375 0.3125q0.734375 0.3125 1.09375 0.828125q0.375 0.5 0.515625 1.203125q0.09375 0.453125 0.09375 1.59375l0 5.953125l-1.640625 0l0 -5.890625q0 -1.0 -0.203125 -1.484375q-0.1875 -0.5 -0.671875 -0.796875q-0.484375 -0.296875 -1.140625 -0.296875q-1.046875 0 -1.8125 0.671875q-0.75 0.65625 -0.75 2.515625l0 5.28125l-1.640625 0z" fill-rule="nonzero"/><path fill="#d9ead3" d="m231.69554 65.72441l152.94487 0l0 -12.251968l24.503937 24.503937l-24.503937 24.503937l0 -12.251968l-152.94487 0z" fill-rule="evenodd"/><path stroke="#000000" stroke-width="1.0" stroke-linejoin="round" stroke-linecap="butt" d="m231.69554 65.72441l152.94487 0l0 -12.251968l24.503937 24.503937l-24.503937 24.503937l0 -12.251968l-152.94487 0z" fill-rule="evenodd"/><path fill="#000000" d="m243.91881 83.83638l0 -10.5l3.171875 0q1.171875 0 2.046875 0.296875q0.875 0.296875 1.359375 0.96875q0.484375 0.671875 0.484375 1.828125q0 1.109375 -0.484375 1.828125q-0.484375 0.703125 -1.375 1.0625q-0.875 0.359375 -2.03125 0.359375l-1.84375 0l0 4.15625l-1.328125 0zm1.328125 -5.25l1.6875 0q1.375 0 2.03125 -0.515625q0.671875 -0.53125 0.671875 -1.640625q0 -1.140625 -0.671875 -1.578125q-0.671875 -0.4375 -2.03125 -0.4375l-1.6875 0l0 4.171875zm11.443771 5.4375q-1.1875 0 -2.09375 -0.65625q-0.90625 -0.65625 -1.421875 -1.875q-0.515625 -1.21875 -0.515625 -2.953125q0 -1.6875 0.515625 -2.890625q0.515625 -1.21875 1.421875 -1.859375q0.90625 -0.640625 2.09375 -0.640625q1.1875 0 2.09375 0.640625q0.921875 0.640625 1.421875 1.859375q0.515625 1.203125 0.515625 2.890625q0 1.734375 -0.515625 2.953125q-0.5 1.21875 -1.421875 1.875q-0.90625 0.65625 -2.09375 0.65625zm0 -1.15625q0.796875 0 1.390625 -0.515625q0.609375 -0.53125 0.9375 -1.5q0.328125 -0.96875 0.328125 -2.3125q0 -1.328125 -0.328125 -2.265625q-0.328125 -0.953125 -0.9375 -1.453125q-0.59375 -0.5 -1.390625 -0.5q-0.796875 0 -1.40625 0.5q-0.59375 0.5 -0.921875 1.453125q-0.328125 0.9375 -0.328125 2.265625q0 1.34375 0.328125 2.3125q0.328125 0.96875 0.921875 1.5q0.609375 0.515625 1.40625 0.515625zm9.678131 1.15625q-1.140625 0 -2.109375 -0.421875q-0.96875 -0.421875 -1.6875 -1.125l0.796875 -0.921875q0.59375 0.578125 1.375 0.953125q0.796875 0.359375 1.6875 0.359375q1.09375 0 1.6875 -0.46875q0.609375 -0.46875 0.609375 -1.203125q0 -0.5625 -0.25 -0.890625q-0.25 -0.34375 -0.671875 -0.5625q-0.421875 -0.21875 -0.96875 -0.453125l-1.5 -0.65625q-0.53125 -0.21875 -1.0625 -0.546875q-0.515625 -0.34375 -0.875 -0.859375q-0.34375 -0.53125 -0.34375 -1.296875q0 -0.796875 0.4375 -1.421875q0.453125 -0.640625 1.234375 -1.0q0.78125 -0.359375 1.78125 -0.359375q0.984375 0 1.8125 0.359375q0.828125 0.359375 1.40625 0.9375l-0.703125 0.859375q-0.5 -0.453125 -1.125 -0.71875q-0.625 -0.265625 -1.453125 -0.265625q-0.90625 0 -1.46875 0.40625q-0.5625 0.40625 -0.5625 1.125q0 0.5 0.28125 0.828125q0.28125 0.3125 0.71875 0.515625q0.4375 0.203125 0.875 0.40625l1.46875 0.640625q0.65625 0.25 1.1875 0.609375q0.53125 0.359375 0.828125 0.890625q0.3125 0.53125 0.3125 1.296875q0 0.828125 -0.453125 1.515625q-0.4375 0.671875 -1.28125 1.078125q-0.828125 0.390625 -1.984375 0.390625zm8.850037 -0.1875l0 -9.375l-3.453125 0l0 -1.125l8.25 0l0 1.125l-3.453125 0l0 9.375l-1.34375 0zm16.653168 2.5625l5.25 -13.921875l1.1875 0l-5.25 13.921875l-1.1875 0zm11.959381 -2.375q-0.71875 0 -1.328125 -0.265625q-0.609375 -0.265625 -0.96875 -0.75q-0.34375 -0.5 -0.34375 -1.1875q0 -1.3125 1.3125 -1.984375q1.3125 -0.6875 4.3125 -0.921875q-0.015625 -0.53125 -0.21875 -0.984375q-0.1875 -0.453125 -0.640625 -0.703125q-0.453125 -0.265625 -1.203125 -0.265625q-0.484375 0 -0.984375 0.140625q-0.484375 0.125 -0.921875 0.34375q-0.4375 0.21875 -0.8125 0.4375l-0.515625 -0.890625q0.390625 -0.265625 0.9375 -0.515625q0.5625 -0.265625 1.203125 -0.4375q0.640625 -0.171875 1.328125 -0.171875q1.0625 0 1.75 0.40625q0.703125 0.390625 1.046875 1.109375q0.34375 0.703125 0.34375 1.6875l0 4.765625l-1.0625 0l-0.109375 -1.0625l-0.046875 0q-0.640625 0.515625 -1.453125 0.890625q-0.796875 0.359375 -1.625 0.359375zm0.34375 -1.046875q0.671875 0 1.328125 -0.296875q0.65625 -0.3125 1.3125 -0.859375l0 -2.046875q-1.65625 0.140625 -2.609375 0.40625q-0.953125 0.25 -1.34375 0.640625q-0.390625 0.390625 -0.390625 0.90625q0 0.421875 0.234375 0.703125q0.25 0.28125 0.640625 0.421875q0.390625 0.125 0.828125 0.125zm6.8031616 4.140625l0 -11.0625l1.09375 0l0.109375 1.0l0.046875 0q0.546875 -0.515625 1.25 -0.84375q0.71875 -0.34375 1.4375 -0.34375q1.0625 0 1.765625 0.5q0.71875 0.484375 1.078125 1.375q0.375 0.875 0.375 2.09375q0 1.3125 -0.5 2.265625q-0.5 0.9375 -1.296875 1.4375q-0.796875 0.484375 -1.734375 0.484375q-0.53125 0 -1.171875 -0.265625q-0.625 -0.265625 -1.15625 -0.734375l-0.046875 0l0.0625 1.46875l0 2.625l-1.3125 0zm3.390625 -4.1875q0.6875 0 1.234375 -0.359375q0.546875 -0.375 0.859375 -1.078125q0.3125 -0.703125 0.3125 -1.65625q0 -0.84375 -0.234375 -1.484375q-0.21875 -0.65625 -0.703125 -1.015625q-0.46875 -0.359375 -1.25 -0.359375q-0.53125 0 -1.125 0.28125q-0.578125 0.28125 -1.171875 0.875l0 3.875q0.5625 0.5 1.125 0.71875q0.578125 0.203125 0.953125 0.203125zm9.787506 0.90625l0 -6.703125l-3.625 0l0 -1.078125l4.9375 0l0 7.78125l-1.3125 0zm0.5 -9.40625q-0.4375 0 -0.75 -0.28125q-0.296875 -0.28125 -0.296875 -0.75q0 -0.453125 0.296875 -0.734375q0.3125 -0.28125 0.75 -0.28125q0.453125 0 0.75 0.28125q0.3125 0.28125 0.3125 0.734375q0 0.46875 -0.3125 0.75q-0.296875 0.28125 -0.75 0.28125zm5.6156616 11.96875l5.25 -13.921875l1.1875 0l-5.25 13.921875l-1.1875 0zm11.959381 -2.375q-1.390625 0 -2.046875 -0.796875q-0.65625 -0.796875 -0.65625 -2.328125l0 -4.84375l1.328125 0l0 4.65625q0 1.109375 0.40625 1.65625q0.40625 0.53125 1.390625 0.53125q0.671875 0 1.21875 -0.34375q0.546875 -0.34375 1.1875 -1.109375l0 -5.390625l1.3125 0l0 7.78125l-1.0625 0l-0.125 -1.359375l-0.0625 0q-0.59375 0.671875 -1.296875 1.109375q-0.703125 0.4375 -1.59375 0.4375zm10.615662 0q-1.125 0 -2.125 -0.359375q-0.984375 -0.375 -1.6875 -0.859375l0.609375 -0.859375q0.671875 0.484375 1.484375 0.78125q0.8125 0.28125 1.890625 0.28125q0.984375 0 1.46875 -0.359375q0.5 -0.375 0.5 -0.859375q0 -0.21875 -0.09375 -0.40625q-0.09375 -0.203125 -0.34375 -0.375q-0.234375 -0.1875 -0.71875 -0.34375q-0.484375 -0.15625 -1.28125 -0.3125q-1.515625 -0.328125 -2.28125 -0.859375q-0.765625 -0.546875 -0.765625 -1.421875q0 -0.9375 0.8125 -1.5625q0.828125 -0.640625 2.421875 -0.640625q0.90625 0 1.734375 0.296875q0.828125 0.296875 1.40625 0.703125l-0.640625 0.84375q-0.53125 -0.390625 -1.203125 -0.59375q-0.671875 -0.21875 -1.40625 -0.21875q-0.671875 0 -1.0625 0.15625q-0.390625 0.140625 -0.5625 0.40625q-0.171875 0.25 -0.171875 0.546875q0 0.5 0.53125 0.78125q0.546875 0.28125 1.734375 0.515625q1.296875 0.28125 1.984375 0.625q0.703125 0.328125 0.96875 0.765625q0.265625 0.421875 0.265625 1.015625q0 0.640625 -0.40625 1.15625q-0.40625 0.515625 -1.171875 0.84375q-0.765625 0.3125 -1.890625 0.3125zm9.928131 0q-1.171875 0 -2.125 -0.46875q-0.953125 -0.484375 -1.515625 -1.40625q-0.546875 -0.921875 -0.546875 -2.21875q0 -1.265625 0.546875 -2.171875q0.5625 -0.90625 1.46875 -1.390625q0.90625 -0.5 1.953125 -0.5q1.109375 0 1.90625 0.453125q0.796875 0.453125 1.21875 1.28125q0.421875 0.8125 0.421875 1.921875q0 0.21875 -0.015625 0.421875q-0.015625 0.203125 -0.046875 0.375l-6.578125 0l0 -1.03125l5.796875 0l-0.34375 0.375q0 -1.375 -0.640625 -2.0625q-0.625 -0.6875 -1.6875 -0.6875q-0.71875 0 -1.34375 0.359375q-0.609375 0.34375 -0.984375 1.015625q-0.359375 0.671875 -0.359375 1.640625q0 1.015625 0.390625 1.6875q0.40625 0.671875 1.09375 1.015625q0.6875 0.34375 1.546875 0.34375q0.703125 0 1.265625 -0.203125q0.578125 -0.203125 1.109375 -0.53125l0.46875 0.859375q-0.5625 0.375 -1.3125 0.65625q-0.75 0.265625 -1.6875 0.265625zm6.6625366 -0.1875l0 -7.78125l1.078125 0l0.109375 1.84375l0.046875 0q0.609375 -0.9375 1.5 -1.484375q0.90625 -0.546875 1.984375 -0.546875q0.421875 0 0.796875 0.078125q0.375 0.0625 0.734375 0.25l-0.3125 1.125q-0.390625 -0.140625 -0.6875 -0.203125q-0.28125 -0.0625 -0.75 -0.0625q-0.875 0 -1.6875 0.5q-0.796875 0.5 -1.515625 1.71875l0 4.5625l-1.296875 0zm12.209381 0.1875q-1.125 0 -2.125 -0.359375q-0.984375 -0.375 -1.6875 -0.859375l0.609375 -0.859375q0.671875 0.484375 1.484375 0.78125q0.8125 0.28125 1.890625 0.28125q0.984375 0 1.46875 -0.359375q0.5 -0.375 0.5 -0.859375q0 -0.21875 -0.09375 -0.40625q-0.09375 -0.203125 -0.34375 -0.375q-0.234375 -0.1875 -0.71875 -0.34375q-0.484375 -0.15625 -1.28125 -0.3125q-1.515625 -0.328125 -2.28125 -0.859375q-0.765625 -0.546875 -0.765625 -1.421875q0 -0.9375 0.8125 -1.5625q0.828125 -0.640625 2.421875 -0.640625q0.90625 0 1.734375 0.296875q0.828125 0.296875 1.40625 0.703125l-0.640625 0.84375q-0.53125 -0.390625 -1.203125 -0.59375q-0.671875 -0.21875 -1.40625 -0.21875q-0.671875 0 -1.0625 0.15625q-0.390625 0.140625 -0.5625 0.40625q-0.171875 0.25 -0.171875 0.546875q0 0.5 0.53125 0.78125q0.546875 0.28125 1.734375 0.515625q1.296875 0.28125 1.984375 0.625q0.703125 0.328125 0.96875 0.765625q0.265625 0.421875 0.265625 1.015625q0 0.640625 -0.40625 1.15625q-0.40625 0.515625 -1.171875 0.84375q-0.765625 0.3125 -1.890625 0.3125z" fill-rule="nonzero"/><path fill="#fff2cc" d="m430.7349 11.950131l483.52756 0l0 236.69292l-483.52756 0z" fill-rule="evenodd"/><path stroke="#000000" stroke-width="1.0" stroke-linejoin="round" stroke-linecap="butt" d="m430.7349 11.950131l483.52756 0l0 236.69292l-483.52756 0z" fill-rule="evenodd"/><path fill="#000000" d="m645.86816 34.573254l1.65625 -0.140625q0.125 1.0 0.546875 1.640625q0.4375 0.640625 1.34375 1.046875q0.921875 0.390625 2.0625 0.390625q1.0 0 1.78125 -0.296875q0.78125 -0.296875 1.15625 -0.8125q0.375 -0.53125 0.375 -1.15625q0 -0.625 -0.375 -1.09375q-0.359375 -0.46875 -1.1875 -0.796875q-0.546875 -0.203125 -2.390625 -0.640625q-1.828125 -0.453125 -2.5625 -0.84375q-0.96875 -0.5 -1.4375 -1.234375q-0.46875 -0.75 -0.46875 -1.671875q0 -1.0 0.578125 -1.875q0.578125 -0.890625 1.671875 -1.34375q1.109375 -0.453125 2.453125 -0.453125q1.484375 0 2.609375 0.484375q1.140625 0.46875 1.75 1.40625q0.609375 0.921875 0.65625 2.09375l-1.6875 0.125q-0.140625 -1.265625 -0.9375 -1.90625q-0.78125 -0.65625 -2.3125 -0.65625q-1.609375 0 -2.34375 0.59375q-0.734375 0.59375 -0.734375 1.421875q0 0.71875 0.53125 1.171875q0.5 0.46875 2.65625 0.96875q2.15625 0.484375 2.953125 0.84375q1.171875 0.53125 1.71875 1.359375q0.5625 0.828125 0.5625 1.90625q0 1.0625 -0.609375 2.015625q-0.609375 0.9375 -1.75 1.46875q-1.140625 0.515625 -2.578125 0.515625q-1.8125 0 -3.046875 -0.53125q-1.21875 -0.53125 -1.921875 -1.59375q-0.6875 -1.0625 -0.71875 -2.40625zm19.459229 1.1875l1.6875 0.203125q-0.40625 1.484375 -1.484375 2.3125q-1.078125 0.8125 -2.765625 0.8125q-2.125 0 -3.375 -1.296875q-1.234375 -1.3125 -1.234375 -3.671875q0 -2.453125 1.25 -3.796875q1.265625 -1.34375 3.265625 -1.34375q1.9375 0 3.15625 1.328125q1.234375 1.3125 1.234375 3.703125q0 0.15625 0 0.4375l-7.21875 0q0.09375 1.59375 0.90625 2.453125q0.8125 0.84375 2.015625 0.84375q0.90625 0 1.546875 -0.46875q0.640625 -0.484375 1.015625 -1.515625zm-5.390625 -2.65625l5.40625 0q-0.109375 -1.21875 -0.625 -1.828125q-0.78125 -0.953125 -2.03125 -0.953125q-1.125 0 -1.90625 0.765625q-0.765625 0.75 -0.84375 2.015625zm9.125732 5.765625l0 -9.671875l1.46875 0l0 1.46875q0.5625 -1.03125 1.03125 -1.359375q0.484375 -0.328125 1.0625 -0.328125q0.828125 0 1.6875 0.53125l-0.5625 1.515625q-0.609375 -0.359375 -1.203125 -0.359375q-0.546875 0 -0.96875 0.328125q-0.421875 0.328125 -0.609375 0.890625q-0.28125 0.875 -0.28125 1.921875l0 5.0625l-1.625 0zm8.9157715 0l-3.6875 -9.671875l1.734375 0l2.078125 5.796875q0.328125 0.9375 0.625 1.9375q0.203125 -0.765625 0.609375 -1.828125l2.140625 -5.90625l1.6875 0l-3.65625 9.671875l-1.53125 0zm13.265625 -3.109375l1.6875 0.203125q-0.40625 1.484375 -1.484375 2.3125q-1.078125 0.8125 -2.765625 0.8125q-2.125 0 -3.375 -1.296875q-1.234375 -1.3125 -1.234375 -3.671875q0 -2.453125 1.25 -3.796875q1.265625 -1.34375 3.265625 -1.34375q1.9375 0 3.15625 1.328125q1.234375 1.3125 1.234375 3.703125q0 0.15625 0 0.4375l-7.21875 0q0.09375 1.59375 0.90625 2.453125q0.8125 0.84375 2.015625 0.84375q0.90625 0 1.546875 -0.46875q0.640625 -0.484375 1.015625 -1.515625zm-5.390625 -2.65625l5.40625 0q-0.109375 -1.21875 -0.625 -1.828125q-0.78125 -0.953125 -2.03125 -0.953125q-1.125 0 -1.90625 0.765625q-0.765625 0.75 -0.84375 2.015625zm9.125732 5.765625l0 -9.671875l1.46875 0l0 1.46875q0.5625 -1.03125 1.03125 -1.359375q0.484375 -0.328125 1.0625 -0.328125q0.828125 0 1.6875 0.53125l-0.5625 1.515625q-0.609375 -0.359375 -1.203125 -0.359375q-0.546875 0 -0.96875 0.328125q-0.421875 0.328125 -0.609375 0.890625q-0.28125 0.875 -0.28125 1.921875l0 5.0625l-1.625 0z" fill-rule="nonzero"/><path fill="#cfe2f3" d="m454.37964 53.472443l447.87402 0l0 177.73228l-447.87402 0z" fill-rule="evenodd"/><path stroke="#000000" stroke-width="1.0" stroke-linejoin="round" stroke-linecap="butt" d="m454.37964 53.472443l447.87402 0l0 177.73228l-447.87402 0z" fill-rule="evenodd"/><path fill="#cfe2f3" d="m474.22046 75.13123l71.968506 0l0 35.527557l-71.968506 0z" fill-rule="evenodd"/><path stroke="#000000" stroke-width="1.0" stroke-linejoin="round" stroke-linecap="butt" d="m474.22046 75.13123l71.968506 0l0 35.527557l-71.968506 0z" fill-rule="evenodd"/><path fill="#000000" d="m498.00784 100.03376q-0.84375 0 -1.5625 -0.296875q-0.703125 -0.3125 -1.109375 -0.890625q-0.40625 -0.578125 -0.40625 -1.375q0 -1.53125 1.53125 -2.328125q1.53125 -0.796875 5.03125 -1.078125q-0.015625 -0.609375 -0.25 -1.125q-0.234375 -0.53125 -0.765625 -0.828125q-0.515625 -0.3125 -1.390625 -0.3125q-0.578125 0 -1.15625 0.15625q-0.5625 0.15625 -1.078125 0.40625q-0.515625 0.25 -0.9375 0.515625l-0.59375 -1.046875q0.4375 -0.296875 1.078125 -0.609375q0.65625 -0.3125 1.390625 -0.5q0.75 -0.203125 1.5625 -0.203125q1.25 0 2.0625 0.46875q0.8125 0.46875 1.203125 1.296875q0.40625 0.828125 0.40625 1.96875l0 5.5625l-1.25 0l-0.125 -1.234375l-0.0625 0q-0.75 0.59375 -1.6875 1.03125q-0.921875 0.421875 -1.890625 0.421875zm0.40625 -1.21875q0.78125 0 1.546875 -0.359375q0.765625 -0.359375 1.53125 -0.984375l0 -2.390625q-1.9375 0.15625 -3.046875 0.46875q-1.109375 0.296875 -1.578125 0.75q-0.453125 0.453125 -0.453125 1.046875q0 0.515625 0.28125 0.84375q0.28125 0.3125 0.734375 0.46875q0.46875 0.15625 0.984375 0.15625zm7.928131 4.828125l0 -12.890625l1.265625 0l0.140625 1.15625l0.046875 0q0.640625 -0.59375 1.46875 -0.984375q0.828125 -0.40625 1.671875 -0.40625q1.234375 0 2.0625 0.578125q0.828125 0.5625 1.25 1.609375q0.4375 1.03125 0.4375 2.4375q0 1.53125 -0.578125 2.640625q-0.578125 1.09375 -1.515625 1.671875q-0.9375 0.578125 -2.03125 0.578125q-0.625 0 -1.359375 -0.296875q-0.734375 -0.3125 -1.34375 -0.875l-0.0625 0l0.078125 1.71875l0 3.0625l-1.53125 0zm3.953125 -4.890625q0.8125 0 1.4375 -0.421875q0.640625 -0.4375 1.0 -1.25q0.359375 -0.8125 0.359375 -1.9375q0 -0.984375 -0.265625 -1.734375q-0.25 -0.75 -0.8125 -1.171875q-0.5625 -0.421875 -1.46875 -0.421875q-0.625 0 -1.3125 0.328125q-0.671875 0.328125 -1.359375 1.03125l0 4.515625q0.65625 0.578125 1.3125 0.828125q0.671875 0.234375 1.109375 0.234375zm7.2406006 4.890625l0 -12.890625l1.265625 0l0.140625 1.15625l0.046875 0q0.640625 -0.59375 1.46875 -0.984375q0.828125 -0.40625 1.671875 -0.40625q1.234375 0 2.0625 0.578125q0.828125 0.5625 1.25 1.609375q0.4375 1.03125 0.4375 2.4375q0 1.53125 -0.578125 2.640625q-0.578125 1.09375 -1.515625 1.671875q-0.9375 0.578125 -2.03125 0.578125q-0.625 0 -1.359375 -0.296875q-0.734375 -0.3125 -1.34375 -0.875l-0.0625 0l0.078125 1.71875l0 3.0625l-1.53125 0zm3.953125 -4.890625q0.8125 0 1.4375 -0.421875q0.640625 -0.4375 1.0 -1.25q0.359375 -0.8125 0.359375 -1.9375q0 -0.984375 -0.265625 -1.734375q-0.25 -0.75 -0.8125 -1.171875q-0.5625 -0.421875 -1.46875 -0.421875q-0.625 0 -1.3125 0.328125q-0.671875 0.328125 -1.359375 1.03125l0 4.515625q0.65625 0.578125 1.3125 0.828125q0.671875 0.234375 1.109375 0.234375z" fill-rule="nonzero"/><path fill="#cfe2f3" d="m576.19946 75.13123l132.28345 0l0 35.527557l-132.28345 0z" fill-rule="evenodd"/><path stroke="#000000" stroke-width="1.0" stroke-linejoin="round" stroke-linecap="butt" d="m576.19946 75.13123l132.28345 0l0 35.527557l-132.28345 0z" fill-rule="evenodd"/><path fill="#000000" d="m592.82556 100.03376q-1.421875 0 -2.546875 -0.546875q-1.125 -0.5625 -1.765625 -1.625q-0.640625 -1.0625 -0.640625 -2.5625q0 -1.53125 0.6875 -2.59375q0.6875 -1.0625 1.828125 -1.625q1.15625 -0.5625 2.53125 -0.5625q1.125 0 1.9375 0.40625q0.8125 0.390625 1.359375 0.921875l-0.765625 0.984375q-0.546875 -0.484375 -1.15625 -0.75q-0.59375 -0.28125 -1.3125 -0.28125q-1.046875 0 -1.859375 0.4375q-0.796875 0.4375 -1.234375 1.234375q-0.4375 0.78125 -0.4375 1.828125q0 1.03125 0.421875 1.8125q0.4375 0.78125 1.21875 1.21875q0.796875 0.4375 1.84375 0.4375q0.84375 0 1.546875 -0.328125q0.703125 -0.34375 1.25 -0.8125l0.703125 1.0q-0.75 0.671875 -1.671875 1.046875q-0.921875 0.359375 -1.9375 0.359375zm10.334351 0q-1.1875 0 -2.203125 -0.546875q-1.015625 -0.5625 -1.640625 -1.625q-0.625 -1.0625 -0.625 -2.5625q0 -1.53125 0.625 -2.59375q0.625 -1.0625 1.640625 -1.625q1.015625 -0.5625 2.203125 -0.5625q1.203125 0 2.21875 0.5625q1.015625 0.5625 1.640625 1.625q0.625 1.0625 0.625 2.59375q0 1.5 -0.625 2.5625q-0.625 1.0625 -1.640625 1.625q-1.015625 0.546875 -2.21875 0.546875zm0 -1.265625q0.875 0 1.53125 -0.4375q0.65625 -0.4375 1.0 -1.21875q0.359375 -0.78125 0.359375 -1.8125q0 -1.046875 -0.359375 -1.828125q-0.34375 -0.796875 -1.0 -1.234375q-0.65625 -0.4375 -1.53125 -0.4375q-0.875 0 -1.515625 0.4375q-0.640625 0.4375 -1.015625 1.234375q-0.359375 0.78125 -0.359375 1.828125q0 1.03125 0.359375 1.8125q0.375 0.78125 1.015625 1.21875q0.640625 0.4375 1.515625 0.4375zm7.3344116 1.046875l0 -9.0625l1.265625 0l0.140625 1.546875l0.0625 0q0.71875 -0.765625 1.53125 -1.265625q0.828125 -0.515625 1.890625 -0.515625q1.609375 0 2.359375 0.9375q0.765625 0.9375 0.765625 2.71875l0 5.640625l-1.515625 0l0 -5.421875q0 -1.296875 -0.5 -1.921875q-0.484375 -0.625 -1.59375 -0.625q-0.8125 0 -1.453125 0.421875q-0.625 0.40625 -1.421875 1.21875l0 6.328125l-1.53125 0zm16.8031 0.21875q-1.3125 0 -2.078125 -0.46875q-0.765625 -0.484375 -1.09375 -1.3125q-0.328125 -0.84375 -0.328125 -1.96875l0 -4.28125l-2.5625 0l0 -1.15625l2.625 -0.09375l0.203125 -2.921875l1.265625 0l0 2.921875l4.453125 0l0 1.25l-4.453125 0l0 4.3125q0 0.796875 0.203125 1.359375q0.203125 0.5625 0.703125 0.84375q0.515625 0.265625 1.390625 0.265625q0.65625 0 1.171875 -0.109375q0.515625 -0.109375 1.0 -0.296875l0.34375 1.125q-0.609375 0.21875 -1.296875 0.375q-0.6875 0.15625 -1.546875 0.15625zm6.5687866 -0.21875l0 -9.0625l1.28125 0l0.125 2.140625l0.046875 0q0.71875 -1.09375 1.765625 -1.734375q1.046875 -0.640625 2.296875 -0.640625q0.5 0 0.9375 0.09375q0.4375 0.078125 0.84375 0.28125l-0.359375 1.328125q-0.453125 -0.171875 -0.796875 -0.234375q-0.328125 -0.078125 -0.875 -0.078125q-1.03125 0 -1.96875 0.59375q-0.9375 0.578125 -1.765625 2.0l0 5.3125l-1.53125 0zm14.068726 0.21875q-1.1875 0 -2.203125 -0.546875q-1.015625 -0.5625 -1.640625 -1.625q-0.625 -1.0625 -0.625 -2.5625q0 -1.53125 0.625 -2.59375q0.625 -1.0625 1.640625 -1.625q1.015625 -0.5625 2.203125 -0.5625q1.203125 0 2.21875 0.5625q1.015625 0.5625 1.640625 1.625q0.625 1.0625 0.625 2.59375q0 1.5 -0.625 2.5625q-0.625 1.0625 -1.640625 1.625q-1.015625 0.546875 -2.21875 0.546875zm0 -1.265625q0.875 0 1.53125 -0.4375q0.65625 -0.4375 1.0 -1.21875q0.359375 -0.78125 0.359375 -1.8125q0 -1.046875 -0.359375 -1.828125q-0.34375 -0.796875 -1.0 -1.234375q-0.65625 -0.4375 -1.53125 -0.4375q-0.875 0 -1.515625 0.4375q-0.640625 0.4375 -1.015625 1.234375q-0.359375 0.78125 -0.359375 1.828125q0 1.03125 0.359375 1.8125q0.375 0.78125 1.015625 1.21875q0.640625 0.4375 1.515625 0.4375zm13.178162 1.265625q-1.4375 0 -2.203125 -0.828125q-0.765625 -0.828125 -0.765625 -2.4375l0 -8.984375l-3.09375 0l0 -1.25l4.625 0l0 10.359375q0 0.984375 0.484375 1.4375q0.484375 0.4375 1.28125 0.4375q0.390625 0 0.796875 -0.09375q0.421875 -0.109375 0.921875 -0.328125l0.390625 1.15625q-0.609375 0.21875 -1.15625 0.375q-0.53125 0.15625 -1.28125 0.15625zm11.193726 0q-1.4375 0 -2.203125 -0.828125q-0.765625 -0.828125 -0.765625 -2.4375l0 -8.984375l-3.09375 0l0 -1.25l4.625 0l0 10.359375q0 0.984375 0.484375 1.4375q0.484375 0.4375 1.28125 0.4375q0.390625 0 0.796875 -0.09375q0.421875 -0.109375 0.921875 -0.328125l0.390625 1.15625q-0.609375 0.21875 -1.15625 0.375q-0.53125 0.15625 -1.28125 0.15625zm9.771912 0q-1.359375 0 -2.46875 -0.546875q-1.109375 -0.5625 -1.765625 -1.640625q-0.65625 -1.078125 -0.65625 -2.578125q0 -1.484375 0.65625 -2.546875q0.65625 -1.0625 1.703125 -1.625q1.0625 -0.578125 2.265625 -0.578125q1.3125 0 2.234375 0.53125q0.921875 0.53125 1.40625 1.484375q0.5 0.953125 0.5 2.25q0 0.25 -0.015625 0.5q-0.015625 0.234375 -0.046875 0.421875l-7.671875 0l0 -1.1875l6.75 0l-0.390625 0.421875q0 -1.59375 -0.734375 -2.390625q-0.734375 -0.8125 -1.984375 -0.8125q-0.84375 0 -1.5625 0.421875q-0.71875 0.40625 -1.15625 1.1875q-0.421875 0.78125 -0.421875 1.921875q0 1.171875 0.46875 1.953125q0.46875 0.78125 1.265625 1.1875q0.796875 0.40625 1.8125 0.40625q0.8125 0 1.46875 -0.234375q0.671875 -0.234375 1.296875 -0.625l0.546875 1.0q-0.65625 0.453125 -1.53125 0.765625q-0.875 0.3125 -1.96875 0.3125zm7.7562256 -0.21875l0 -9.0625l1.28125 0l0.125 2.140625l0.046875 0q0.71875 -1.09375 1.765625 -1.734375q1.046875 -0.640625 2.296875 -0.640625q0.5 0 0.9375 0.09375q0.4375 0.078125 0.84375 0.28125l-0.359375 1.328125q-0.453125 -0.171875 -0.796875 -0.234375q-0.328125 -0.078125 -0.875 -0.078125q-1.03125 0 -1.96875 0.59375q-0.9375 0.578125 -1.765625 2.0l0 5.3125l-1.53125 0z" fill-rule="nonzero"/><path fill="#cfe2f3" d="m738.4934 75.13123l132.28351 0l0 35.527557l-132.28351 0z" fill-rule="evenodd"/><path stroke="#000000" stroke-width="1.0" stroke-linejoin="round" stroke-linecap="butt" d="m738.4934 75.13123l132.28351 0l0 35.527557l-132.28351 0z" fill-rule="evenodd"/><path fill="#000000" d="m777.7289 99.81501l0 -9.0625l1.234375 0l0.125 1.1875l0.046875 0q0.34375 -0.625 0.8125 -1.015625q0.46875 -0.40625 1.25 -0.40625q0.671875 0 1.09375 0.40625q0.4375 0.390625 0.625 1.171875q0.390625 -0.734375 0.859375 -1.15625q0.484375 -0.421875 1.265625 -0.421875q0.953125 0 1.484375 0.71875q0.53125 0.71875 0.53125 2.078125l0 6.5l-1.53125 0l0 -6.375q0 -1.59375 -0.96875 -1.59375q-0.46875 0 -0.78125 0.34375q-0.296875 0.34375 -0.671875 1.0625l0 6.5625l-1.421875 0l0 -6.375q0 -0.78125 -0.21875 -1.1875q-0.203125 -0.40625 -0.703125 -0.40625q-0.46875 0 -0.8125 0.34375q-0.34375 0.34375 -0.6875 1.0625l0 6.5625l-1.53125 0zm15.709412 0.21875q-1.1875 0 -2.203125 -0.546875q-1.015625 -0.5625 -1.640625 -1.625q-0.625 -1.0625 -0.625 -2.5625q0 -1.53125 0.625 -2.59375q0.625 -1.0625 1.640625 -1.625q1.015625 -0.5625 2.203125 -0.5625q1.203125 0 2.21875 0.5625q1.015625 0.5625 1.640625 1.625q0.625 1.0625 0.625 2.59375q0 1.5 -0.625 2.5625q-0.625 1.0625 -1.640625 1.625q-1.015625 0.546875 -2.21875 0.546875zm0 -1.265625q0.875 0 1.53125 -0.4375q0.65625 -0.4375 1.0 -1.21875q0.359375 -0.78125 0.359375 -1.8125q0 -1.046875 -0.359375 -1.828125q-0.34375 -0.796875 -1.0 -1.234375q-0.65625 -0.4375 -1.53125 -0.4375q-0.875 0 -1.515625 0.4375q-0.640625 0.4375 -1.015625 1.234375q-0.359375 0.78125 -0.359375 1.828125q0 1.03125 0.359375 1.8125q0.375 0.78125 1.015625 1.21875q0.640625 0.4375 1.515625 0.4375zm10.662476 1.265625q-1.78125 0 -2.859375 -1.234375q-1.078125 -1.234375 -1.078125 -3.5q0 -1.46875 0.578125 -2.546875q0.59375 -1.078125 1.53125 -1.65625q0.9375 -0.578125 2.015625 -0.578125q0.796875 0 1.453125 0.3125q0.671875 0.3125 1.25 0.875l0.046875 0l-0.078125 -1.6875l0 -3.484375l1.53125 0l0 13.28125l-1.265625 0l-0.125 -1.1875l-0.0625 0q-0.53125 0.578125 -1.3125 1.0q-0.78125 0.40625 -1.625 0.40625zm0.3125 -1.28125q0.671875 0 1.296875 -0.34375q0.640625 -0.34375 1.25 -1.015625l0 -4.515625q-0.609375 -0.578125 -1.203125 -0.8125q-0.578125 -0.25 -1.171875 -0.25q-0.796875 0 -1.4375 0.4375q-0.640625 0.4375 -1.03125 1.21875q-0.375 0.765625 -0.375 1.8125q0 1.625 0.703125 2.546875q0.71875 0.921875 1.96875 0.921875zm11.975037 1.28125q-1.359375 0 -2.46875 -0.546875q-1.109375 -0.5625 -1.765625 -1.640625q-0.65625 -1.078125 -0.65625 -2.578125q0 -1.484375 0.65625 -2.546875q0.65625 -1.0625 1.703125 -1.625q1.0625 -0.578125 2.265625 -0.578125q1.3125 0 2.234375 0.53125q0.921875 0.53125 1.40625 1.484375q0.5 0.953125 0.5 2.25q0 0.25 -0.015625 0.5q-0.015625 0.234375 -0.046875 0.421875l-7.671875 0l0 -1.1875l6.75 0l-0.390625 0.421875q0 -1.59375 -0.734375 -2.390625q-0.734375 -0.8125 -1.984375 -0.8125q-0.84375 0 -1.5625 0.421875q-0.71875 0.40625 -1.15625 1.1875q-0.421875 0.78125 -0.421875 1.921875q0 1.171875 0.46875 1.953125q0.46875 0.78125 1.265625 1.1875q0.796875 0.40625 1.8125 0.40625q0.8125 0 1.46875 -0.234375q0.671875 -0.234375 1.296875 -0.625l0.546875 1.0q-0.65625 0.453125 -1.53125 0.765625q-0.875 0.3125 -1.96875 0.3125zm12.615601 0q-1.4375 0 -2.203125 -0.828125q-0.765625 -0.828125 -0.765625 -2.4375l0 -8.984375l-3.09375 0l0 -1.25l4.625 0l0 10.359375q0 0.984375 0.484375 1.4375q0.484375 0.4375 1.28125 0.4375q0.390625 0 0.796875 -0.09375q0.421875 -0.109375 0.921875 -0.328125l0.390625 1.15625q-0.609375 0.21875 -1.15625 0.375q-0.53125 0.15625 -1.28125 0.15625z" fill-rule="nonzero"/><path fill="#000000" fill-opacity="0.0" d="m546.18896 92.89501l30.015747 0" fill-rule="evenodd"/><path stroke="#000000" stroke-width="1.0" stroke-linejoin="round" stroke-linecap="butt" d="m546.18896 92.89501l24.015747 0" fill-rule="evenodd"/><path fill="#000000" stroke="#000000" stroke-width="1.0" stroke-linecap="butt" d="m570.2047 94.546745l4.538086 -1.6517334l-4.538086 -1.6517334z" fill-rule="evenodd"/><path fill="#000000" fill-opacity="0.0" d="m708.4829 92.89501l30.015747 0" fill-rule="evenodd"/><path stroke="#000000" stroke-width="1.0" stroke-linejoin="round" stroke-linecap="butt" d="m708.4829 92.89501l24.015747 0" fill-rule="evenodd"/><path fill="#000000" stroke="#000000" stroke-width="1.0" stroke-linecap="butt" d="m732.4987 94.546745l4.538086 -1.6517334l-4.538086 -1.6517334z" fill-rule="evenodd"/><path fill="#d9ead3" d="m935.853 80.64304l172.31494 0l0 -12.251968l24.503906 24.503937l-24.503906 24.503937l0 -12.251968l-172.31494 0z" fill-rule="evenodd"/><path stroke="#000000" stroke-width="1.0" stroke-linejoin="round" stroke-linecap="butt" d="m935.853 80.64304l172.31494 0l0 -12.251968l24.503906 24.503937l-24.503906 24.503937l0 -12.251968l-172.31494 0z" fill-rule="evenodd"/><path fill="#000000" d="m948.05194 98.75501l0 -1.140625l2.609375 0l0 -8.234375l-2.609375 0l0 -1.125l6.5625 0l0 1.125l-2.609375 0l0 8.234375l2.609375 0l0 1.140625l-6.5625 0zm9.396851 0l0 -10.5l1.46875 0l3.359375 6.59375l1.015625 2.171875l0.03125 0q-0.03125 -0.78125 -0.109375 -1.625q-0.0625 -0.859375 -0.0625 -1.703125l0 -5.4375l1.265625 0l0 10.5l-1.46875 0l-3.359375 -6.59375l-1.0 -2.171875l-0.03125 0q0.03125 0.796875 0.09375 1.640625q0.078125 0.828125 0.078125 1.640625l0 5.484375l-1.28125 0zm13.162537 0.1875q-1.140625 0 -2.109375 -0.421875q-0.96875 -0.421875 -1.6875 -1.125l0.796875 -0.921875q0.59375 0.578125 1.375 0.953125q0.796875 0.359375 1.6875 0.359375q1.09375 0 1.6875 -0.46875q0.609375 -0.46875 0.609375 -1.203125q0 -0.5625 -0.25 -0.890625q-0.25 -0.34375 -0.671875 -0.5625q-0.421875 -0.21875 -0.96875 -0.453125l-1.5 -0.65625q-0.53125 -0.21875 -1.0625 -0.546875q-0.515625 -0.34375 -0.875 -0.859375q-0.34375 -0.53125 -0.34375 -1.296875q0 -0.796875 0.4375 -1.421875q0.453125 -0.640625 1.234375 -1.0q0.78125 -0.359375 1.78125 -0.359375q0.984375 0 1.8125 0.359375q0.828125 0.359375 1.40625 0.9375l-0.703125 0.859375q-0.5 -0.453125 -1.125 -0.71875q-0.625 -0.265625 -1.453125 -0.265625q-0.90625 0 -1.46875 0.40625q-0.5625 0.40625 -0.5625 1.125q0 0.5 0.28125 0.828125q0.28125 0.3125 0.71875 0.515625q0.4375 0.203125 0.875 0.40625l1.46875 0.640625q0.65625 0.25 1.1875 0.609375q0.53125 0.359375 0.828125 0.890625q0.3125 0.53125 0.3125 1.296875q0 0.828125 -0.453125 1.515625q-0.4375 0.671875 -1.28125 1.078125q-0.828125 0.390625 -1.984375 0.390625zm6.5531616 -0.1875l0 -10.5l6.484375 0l0 1.125l-5.140625 0l0 3.296875l4.34375 0l0 1.140625l-4.34375 0l0 3.796875l5.3125 0l0 1.140625l-6.65625 0zm9.365662 0l0 -10.5l3.265625 0q1.078125 0 1.890625 0.28125q0.828125 0.28125 1.296875 0.9375q0.484375 0.640625 0.484375 1.734375q0 1.046875 -0.484375 1.734375q-0.46875 0.6875 -1.296875 1.03125q-0.8125 0.34375 -1.890625 0.34375l-1.9375 0l0 4.4375l-1.328125 0zm1.328125 -5.515625l1.75 0q1.234375 0 1.875 -0.5q0.65625 -0.515625 0.65625 -1.53125q0 -1.03125 -0.65625 -1.453125q-0.640625 -0.421875 -1.875 -0.421875l-1.75 0l0 3.90625zm1.671875 0.71875l1.046875 -0.703125l3.203125 5.5l-1.515625 0l-2.734375 -4.796875zm9.131226 4.796875l0 -9.375l-3.453125 0l0 -1.125l8.25 0l0 1.125l-3.453125 0l0 9.375l-1.34375 0zm16.590698 0l0 -1.140625l2.609375 0l0 -8.234375l-2.609375 0l0 -1.125l6.5625 0l0 1.125l-2.609375 0l0 8.234375l2.609375 0l0 1.140625l-6.5625 0zm9.396851 0l0 -10.5l1.46875 0l3.359375 6.59375l1.015625 2.171875l0.03125 0q-0.03125 -0.78125 -0.109375 -1.625q-0.0625 -0.859375 -0.0625 -1.703125l0 -5.4375l1.265625 0l0 10.5l-1.46875 0l-3.359375 -6.59375l-1.0 -2.171875l-0.03125 0q0.03125 0.796875 0.09375 1.640625q0.078125 0.828125 0.078125 1.640625l0 5.484375l-1.28125 0zm12.412598 0l0 -9.375l-3.453125 0l0 -1.125l8.25 0l0 1.125l-3.453125 0l0 9.375l-1.34375 0zm10.271851 0.1875q-1.1875 0 -2.09375 -0.65625q-0.90625 -0.65625 -1.421875 -1.875q-0.515625 -1.21875 -0.515625 -2.953125q0 -1.6875 0.515625 -2.890625q0.515625 -1.21875 1.421875 -1.859375q0.90625 -0.640625 2.09375 -0.640625q1.1875 0 2.09375 0.640625q0.921875 0.640625 1.421875 1.859375q0.515625 1.203125 0.515625 2.890625q0 1.734375 -0.515625 2.953125q-0.5 1.21875 -1.421875 1.875q-0.90625 0.65625 -2.09375 0.65625zm0 -1.15625q0.796875 0 1.390625 -0.515625q0.609375 -0.53125 0.9375 -1.5q0.328125 -0.96875 0.328125 -2.3125q0 -1.328125 -0.328125 -2.265625q-0.328125 -0.953125 -0.9375 -1.453125q-0.59375 -0.5 -1.390625 -0.5q-0.796875 0 -1.40625 0.5q-0.59375 0.5 -0.921875 1.453125q-0.328125 0.9375 -0.328125 2.265625q0 1.34375 0.328125 2.3125q0.328125 0.96875 0.921875 1.5q0.609375 0.515625 1.40625 0.515625zm18.340698 1.15625q-1.390625 0 -2.046875 -0.796875q-0.65625 -0.796875 -0.65625 -2.328125l0 -4.84375l1.328125 0l0 4.65625q0 1.109375 0.40625 1.65625q0.40625 0.53125 1.390625 0.53125q0.671875 0 1.21875 -0.34375q0.546875 -0.34375 1.1875 -1.109375l0 -5.390625l1.3125 0l0 7.78125l-1.0625 0l-0.125 -1.359375l-0.0625 0q-0.59375 0.671875 -1.296875 1.109375q-0.703125 0.4375 -1.59375 0.4375zm10.615601 0q-1.125 0 -2.125 -0.359375q-0.984375 -0.375 -1.6875 -0.859375l0.609375 -0.859375q0.671875 0.484375 1.484375 0.78125q0.8125 0.28125 1.890625 0.28125q0.984375 0 1.46875 -0.359375q0.5 -0.375 0.5 -0.859375q0 -0.21875 -0.09375 -0.40625q-0.09375 -0.203125 -0.34375 -0.375q-0.234375 -0.1875 -0.71875 -0.34375q-0.484375 -0.15625 -1.28125 -0.3125q-1.515625 -0.328125 -2.28125 -0.859375q-0.765625 -0.546875 -0.765625 -1.421875q0 -0.9375 0.8125 -1.5625q0.828125 -0.640625 2.421875 -0.640625q0.90625 0 1.734375 0.296875q0.828125 0.296875 1.40625 0.703125l-0.640625 0.84375q-0.53125 -0.390625 -1.203125 -0.59375q-0.671875 -0.21875 -1.40625 -0.21875q-0.671875 0 -1.0625 0.15625q-0.390625 0.140625 -0.5625 0.40625q-0.171875 0.25 -0.171875 0.546875q0 0.5 0.53125 0.78125q0.546875 0.28125 1.734375 0.515625q1.296875 0.28125 1.984375 0.625q0.703125 0.328125 0.96875 0.765625q0.265625 0.421875 0.265625 1.015625q0 0.640625 -0.40625 1.15625q-0.40625 0.515625 -1.171875 0.84375q-0.765625 0.3125 -1.890625 0.3125zm9.928223 0q-1.171875 0 -2.125 -0.46875q-0.953125 -0.484375 -1.515625 -1.40625q-0.546875 -0.921875 -0.546875 -2.21875q0 -1.265625 0.546875 -2.171875q0.5625 -0.90625 1.46875 -1.390625q0.90625 -0.5 1.953125 -0.5q1.109375 0 1.90625 0.453125q0.796875 0.453125 1.21875 1.28125q0.421875 0.8125 0.421875 1.921875q0 0.21875 -0.015625 0.421875q-0.015625 0.203125 -0.046875 0.375l-6.578125 0l0 -1.03125l5.796875 0l-0.34375 0.375q0 -1.375 -0.640625 -2.0625q-0.625 -0.6875 -1.6875 -0.6875q-0.71875 0 -1.34375 0.359375q-0.609375 0.34375 -0.984375 1.015625q-0.359375 0.671875 -0.359375 1.640625q0 1.015625 0.390625 1.6875q0.40625 0.671875 1.09375 1.015625q0.6875 0.34375 1.546875 0.34375q0.703125 0 1.265625 -0.203125q0.578125 -0.203125 1.109375 -0.53125l0.46875 0.859375q-0.5625 0.375 -1.3125 0.65625q-0.75 0.265625 -1.6875 0.265625zm6.6624756 -0.1875l0 -7.78125l1.078125 0l0.109375 1.84375l0.046875 0q0.609375 -0.9375 1.5 -1.484375q0.90625 -0.546875 1.984375 -0.546875q0.421875 0 0.796875 0.078125q0.375 0.0625 0.734375 0.25l-0.3125 1.125q-0.390625 -0.140625 -0.6875 -0.203125q-0.28125 -0.0625 -0.75 -0.0625q-0.875 0 -1.6875 0.5q-0.796875 0.5 -1.515625 1.71875l0 4.5625l-1.296875 0zm12.209351 0.1875q-1.125 0 -2.125 -0.359375q-0.984375 -0.375 -1.6875 -0.859375l0.609375 -0.859375q0.671875 0.484375 1.484375 0.78125q0.8125 0.28125 1.890625 0.28125q0.984375 0 1.46875 -0.359375q0.5 -0.375 0.5 -0.859375q0 -0.21875 -0.09375 -0.40625q-0.09375 -0.203125 -0.34375 -0.375q-0.234375 -0.1875 -0.71875 -0.34375q-0.484375 -0.15625 -1.28125 -0.3125q-1.515625 -0.328125 -2.28125 -0.859375q-0.765625 -0.546875 -0.765625 -1.421875q0 -0.9375 0.8125 -1.5625q0.828125 -0.640625 2.421875 -0.640625q0.90625 0 1.734375 0.296875q0.828125 0.296875 1.40625 0.703125l-0.640625 0.84375q-0.53125 -0.390625 -1.203125 -0.59375q-0.671875 -0.21875 -1.40625 -0.21875q-0.671875 0 -1.0625 0.15625q-0.390625 0.140625 -0.5625 0.40625q-0.171875 0.25 -0.171875 0.546875q0 0.5 0.53125 0.78125q0.546875 0.28125 1.734375 0.515625q1.296875 0.28125 1.984375 0.625q0.703125 0.328125 0.96875 0.765625q0.265625 0.421875 0.265625 1.015625q0 0.640625 -0.40625 1.15625q-0.40625 0.515625 -1.171875 0.84375q-0.765625 0.3125 -1.890625 0.3125z" fill-rule="nonzero"/><path fill="#000000" fill-opacity="0.0" d="m870.7769 92.89501l65.07086 0" fill-rule="evenodd"/><path stroke="#000000" stroke-width="1.0" stroke-linejoin="round" stroke-linecap="butt" d="m870.7769 92.89501l59.07086 0" fill-rule="evenodd"/><path fill="#000000" stroke="#000000" stroke-width="1.0" stroke-linecap="butt" d="m929.8478 94.546745l4.538086 -1.6517334l-4.538086 -1.6517334z" fill-rule="evenodd"/><path fill="#fff2cc" d="m1154.2625 11.950131l196.81897 0l0 236.69292l-196.81897 0z" fill-rule="evenodd"/><path stroke="#000000" stroke-width="1.0" stroke-linejoin="round" stroke-linecap="butt" d="m1154.2625 11.950131l196.81897 0l0 236.69292l-196.81897 0z" fill-rule="evenodd"/><path fill="#000000" d="m1184.112 38.87013l0 -13.359375l4.609375 0q1.546875 0 2.375 0.203125q1.140625 0.25 1.953125 0.953125q1.0625 0.890625 1.578125 2.28125q0.53125 1.390625 0.53125 3.171875q0 1.515625 -0.359375 2.703125q-0.359375 1.171875 -0.921875 1.9375q-0.546875 0.765625 -1.203125 1.21875q-0.65625 0.4375 -1.59375 0.671875q-0.9375 0.21875 -2.140625 0.21875l-4.828125 0zm1.765625 -1.578125l2.859375 0q1.3125 0 2.0625 -0.234375q0.75 -0.25 1.203125 -0.703125q0.625 -0.625 0.96875 -1.6875q0.359375 -1.0625 0.359375 -2.578125q0 -2.09375 -0.6875 -3.21875q-0.6875 -1.125 -1.671875 -1.5q-0.703125 -0.28125 -2.28125 -0.28125l-2.8125 0l0 10.203125zm17.81665 0.390625q-0.921875 0.765625 -1.765625 1.09375q-0.828125 0.3125 -1.796875 0.3125q-1.59375 0 -2.453125 -0.78125q-0.859375 -0.78125 -0.859375 -1.984375q0 -0.71875 0.328125 -1.296875q0.328125 -0.59375 0.84375 -0.9375q0.53125 -0.359375 1.1875 -0.546875q0.46875 -0.125 1.453125 -0.25q1.984375 -0.234375 2.921875 -0.5625q0.015625 -0.34375 0.015625 -0.421875q0 -1.0 -0.46875 -1.421875q-0.625 -0.546875 -1.875 -0.546875q-1.15625 0 -1.703125 0.40625q-0.546875 0.40625 -0.8125 1.421875l-1.609375 -0.21875q0.21875 -1.015625 0.71875 -1.640625q0.5 -0.640625 1.453125 -0.984375q0.953125 -0.34375 2.1875 -0.34375q1.25 0 2.015625 0.296875q0.78125 0.28125 1.140625 0.734375q0.375 0.4375 0.515625 1.109375q0.078125 0.421875 0.078125 1.515625l0 2.1875q0 2.28125 0.109375 2.890625q0.109375 0.59375 0.40625 1.15625l-1.703125 0q-0.265625 -0.515625 -0.328125 -1.1875zm-0.140625 -3.671875q-0.890625 0.375 -2.671875 0.625q-1.015625 0.140625 -1.4375 0.328125q-0.421875 0.1875 -0.65625 0.53125q-0.21875 0.34375 -0.21875 0.78125q0 0.65625 0.5 1.09375q0.5 0.4375 1.453125 0.4375q0.9375 0 1.671875 -0.40625q0.75 -0.421875 1.09375 -1.140625q0.265625 -0.5625 0.265625 -1.640625l0 -0.609375zm7.7819824 3.390625l0.234375 1.453125q-0.6875 0.140625 -1.234375 0.140625q-0.890625 0 -1.390625 -0.28125q-0.484375 -0.28125 -0.6875 -0.734375q-0.203125 -0.46875 -0.203125 -1.9375l0 -5.578125l-1.203125 0l0 -1.265625l1.203125 0l0 -2.390625l1.625 -0.984375l0 3.375l1.65625 0l0 1.265625l-1.65625 0l0 5.671875q0 0.6875 0.078125 0.890625q0.09375 0.203125 0.28125 0.328125q0.203125 0.109375 0.578125 0.109375q0.265625 0 0.71875 -0.0625zm7.9177246 0.28125q-0.921875 0.765625 -1.765625 1.09375q-0.828125 0.3125 -1.796875 0.3125q-1.59375 0 -2.453125 -0.78125q-0.859375 -0.78125 -0.859375 -1.984375q0 -0.71875 0.328125 -1.296875q0.328125 -0.59375 0.84375 -0.9375q0.53125 -0.359375 1.1875 -0.546875q0.46875 -0.125 1.453125 -0.25q1.984375 -0.234375 2.921875 -0.5625q0.015625 -0.34375 0.015625 -0.421875q0 -1.0 -0.46875 -1.421875q-0.625 -0.546875 -1.875 -0.546875q-1.15625 0 -1.703125 0.40625q-0.546875 0.40625 -0.8125 1.421875l-1.609375 -0.21875q0.21875 -1.015625 0.71875 -1.640625q0.5 -0.640625 1.453125 -0.984375q0.953125 -0.34375 2.1875 -0.34375q1.25 0 2.015625 0.296875q0.78125 0.28125 1.140625 0.734375q0.375 0.4375 0.515625 1.109375q0.078125 0.421875 0.078125 1.515625l0 2.1875q0 2.28125 0.109375 2.890625q0.109375 0.59375 0.40625 1.15625l-1.703125 0q-0.265625 -0.515625 -0.328125 -1.1875zm-0.140625 -3.671875q-0.890625 0.375 -2.671875 0.625q-1.015625 0.140625 -1.4375 0.328125q-0.421875 0.1875 -0.65625 0.53125q-0.21875 0.34375 -0.21875 0.78125q0 0.65625 0.5 1.09375q0.5 0.4375 1.453125 0.4375q0.9375 0 1.671875 -0.40625q0.75 -0.421875 1.09375 -1.140625q0.265625 -0.5625 0.265625 -1.640625l0 -0.609375zm5.7038574 4.859375l-1.515625 0l0 -13.359375l1.640625 0l0 4.765625q1.046875 -1.296875 2.65625 -1.296875q0.890625 0 1.6875 0.359375q0.796875 0.359375 1.3125 1.015625q0.515625 0.640625 0.796875 1.5625q0.296875 0.921875 0.296875 1.96875q0 2.484375 -1.234375 3.84375q-1.21875 1.359375 -2.953125 1.359375q-1.703125 0 -2.6875 -1.4375l0 1.21875zm-0.015625 -4.90625q0 1.734375 0.484375 2.515625q0.765625 1.265625 2.09375 1.265625q1.078125 0 1.859375 -0.9375q0.78125 -0.9375 0.78125 -2.78125q0 -1.890625 -0.75 -2.796875q-0.75 -0.90625 -1.828125 -0.90625q-1.0625 0 -1.859375 0.9375q-0.78125 0.9375 -0.78125 2.703125zm15.203735 3.71875q-0.921875 0.765625 -1.765625 1.09375q-0.828125 0.3125 -1.796875 0.3125q-1.59375 0 -2.453125 -0.78125q-0.859375 -0.78125 -0.859375 -1.984375q0 -0.71875 0.328125 -1.296875q0.328125 -0.59375 0.84375 -0.9375q0.53125 -0.359375 1.1875 -0.546875q0.46875 -0.125 1.453125 -0.25q1.984375 -0.234375 2.921875 -0.5625q0.015625 -0.34375 0.015625 -0.421875q0 -1.0 -0.46875 -1.421875q-0.625 -0.546875 -1.875 -0.546875q-1.15625 0 -1.703125 0.40625q-0.546875 0.40625 -0.8125 1.421875l-1.609375 -0.21875q0.21875 -1.015625 0.71875 -1.640625q0.5 -0.640625 1.453125 -0.984375q0.953125 -0.34375 2.1875 -0.34375q1.25 0 2.015625 0.296875q0.78125 0.28125 1.140625 0.734375q0.375 0.4375 0.515625 1.109375q0.078125 0.421875 0.078125 1.515625l0 2.1875q0 2.28125 0.109375 2.890625q0.109375 0.59375 0.40625 1.15625l-1.703125 0q-0.265625 -0.515625 -0.328125 -1.1875zm-0.140625 -3.671875q-0.890625 0.375 -2.671875 0.625q-1.015625 0.140625 -1.4375 0.328125q-0.421875 0.1875 -0.65625 0.53125q-0.21875 0.34375 -0.21875 0.78125q0 0.65625 0.5 1.09375q0.5 0.4375 1.453125 0.4375q0.9375 0 1.671875 -0.40625q0.75 -0.421875 1.09375 -1.140625q0.265625 -0.5625 0.265625 -1.640625l0 -0.609375zm3.5476074 1.96875l1.625 -0.25q0.125 0.96875 0.75 1.5q0.625 0.515625 1.75 0.515625q1.125 0 1.671875 -0.453125q0.546875 -0.46875 0.546875 -1.09375q0 -0.546875 -0.484375 -0.875q-0.328125 -0.21875 -1.671875 -0.546875q-1.8125 -0.46875 -2.515625 -0.796875q-0.6875 -0.328125 -1.046875 -0.90625q-0.359375 -0.59375 -0.359375 -1.3125q0 -0.640625 0.296875 -1.1875q0.296875 -0.5625 0.8125 -0.921875q0.375 -0.28125 1.03125 -0.46875q0.671875 -0.203125 1.421875 -0.203125q1.140625 0 2.0 0.328125q0.859375 0.328125 1.265625 0.890625q0.421875 0.5625 0.578125 1.5l-1.609375 0.21875q-0.109375 -0.75 -0.640625 -1.171875q-0.515625 -0.421875 -1.46875 -0.421875q-1.140625 0 -1.625 0.375q-0.46875 0.375 -0.46875 0.875q0 0.3125 0.1875 0.578125q0.203125 0.265625 0.640625 0.4375q0.234375 0.09375 1.4375 0.421875q1.75 0.453125 2.4375 0.75q0.6875 0.296875 1.078125 0.859375q0.390625 0.5625 0.390625 1.40625q0 0.828125 -0.484375 1.546875q-0.46875 0.71875 -1.375 1.125q-0.90625 0.390625 -2.046875 0.390625q-1.875 0 -2.875 -0.78125q-0.984375 -0.78125 -1.25 -2.328125zm16.609375 -0.21875l1.6875 0.203125q-0.40625 1.484375 -1.484375 2.3125q-1.078125 0.8125 -2.765625 0.8125q-2.125 0 -3.375 -1.296875q-1.234375 -1.3125 -1.234375 -3.671875q0 -2.453125 1.25 -3.796875q1.265625 -1.34375 3.265625 -1.34375q1.9375 0 3.15625 1.328125q1.234375 1.3125 1.234375 3.703125q0 0.15625 0 0.4375l-7.21875 0q0.09375 1.59375 0.90625 2.453125q0.8125 0.84375 2.015625 0.84375q0.90625 0 1.546875 -0.46875q0.640625 -0.484375 1.015625 -1.515625zm-5.390625 -2.65625l5.40625 0q-0.109375 -1.21875 -0.625 -1.828125q-0.78125 -0.953125 -2.03125 -0.953125q-1.125 0 -1.90625 0.765625q-0.765625 0.75 -0.84375 2.015625zm13.934082 1.46875l1.65625 -0.140625q0.125 1.0 0.546875 1.640625q0.4375 0.640625 1.34375 1.046875q0.921875 0.390625 2.0625 0.390625q1.0 0 1.78125 -0.296875q0.78125 -0.296875 1.15625 -0.8125q0.375 -0.53125 0.375 -1.15625q0 -0.625 -0.375 -1.09375q-0.359375 -0.46875 -1.1875 -0.796875q-0.546875 -0.203125 -2.390625 -0.640625q-1.828125 -0.453125 -2.5625 -0.84375q-0.96875 -0.5 -1.4375 -1.234375q-0.46875 -0.75 -0.46875 -1.671875q0 -1.0 0.578125 -1.875q0.578125 -0.890625 1.671875 -1.34375q1.109375 -0.453125 2.453125 -0.453125q1.484375 0 2.609375 0.484375q1.140625 0.46875 1.75 1.40625q0.609375 0.921875 0.65625 2.09375l-1.6875 0.125q-0.140625 -1.265625 -0.9375 -1.90625q-0.78125 -0.65625 -2.3125 -0.65625q-1.609375 0 -2.34375 0.59375q-0.734375 0.59375 -0.734375 1.421875q0 0.71875 0.53125 1.171875q0.5 0.46875 2.65625 0.96875q2.15625 0.484375 2.953125 0.84375q1.171875 0.53125 1.71875 1.359375q0.5625 0.828125 0.5625 1.90625q0 1.0625 -0.609375 2.015625q-0.609375 0.9375 -1.75 1.46875q-1.140625 0.515625 -2.578125 0.515625q-1.8125 0 -3.046875 -0.53125q-1.21875 -0.53125 -1.921875 -1.59375q-0.6875 -1.0625 -0.71875 -2.40625zm19.459229 1.1875l1.6875 0.203125q-0.40625 1.484375 -1.484375 2.3125q-1.078125 0.8125 -2.765625 0.8125q-2.125 0 -3.375 -1.296875q-1.234375 -1.3125 -1.234375 -3.671875q0 -2.453125 1.25 -3.796875q1.265625 -1.34375 3.265625 -1.34375q1.9375 0 3.15625 1.328125q1.234375 1.3125 1.234375 3.703125q0 0.15625 0 0.4375l-7.21875 0q0.09375 1.59375 0.90625 2.453125q0.8125 0.84375 2.015625 0.84375q0.90625 0 1.546875 -0.46875q0.640625 -0.484375 1.015625 -1.515625zm-5.390625 -2.65625l5.40625 0q-0.109375 -1.21875 -0.625 -1.828125q-0.78125 -0.953125 -2.03125 -0.953125q-1.125 0 -1.90625 0.765625q-0.765625 0.75 -0.84375 2.015625zm9.12561 5.765625l0 -9.671875l1.46875 0l0 1.46875q0.5625 -1.03125 1.03125 -1.359375q0.484375 -0.328125 1.0625 -0.328125q0.828125 0 1.6875 0.53125l-0.5625 1.515625q-0.609375 -0.359375 -1.203125 -0.359375q-0.546875 0 -0.96875 0.328125q-0.421875 0.328125 -0.609375 0.890625q-0.28125 0.875 -0.28125 1.921875l0 5.0625l-1.625 0zm8.915894 0l-3.6875 -9.671875l1.734375 0l2.078125 5.796875q0.328125 0.9375 0.625 1.9375q0.203125 -0.765625 0.609375 -1.828125l2.140625 -5.90625l1.6875 0l-3.65625 9.671875l-1.53125 0zm13.265625 -3.109375l1.6875 0.203125q-0.40625 1.484375 -1.484375 2.3125q-1.078125 0.8125 -2.765625 0.8125q-2.125 0 -3.375 -1.296875q-1.234375 -1.3125 -1.234375 -3.671875q0 -2.453125 1.25 -3.796875q1.265625 -1.34375 3.265625 -1.34375q1.9375 0 3.15625 1.328125q1.234375 1.3125 1.234375 3.703125q0 0.15625 0 0.4375l-7.21875 0q0.09375 1.59375 0.90625 2.453125q0.8125 0.84375 2.015625 0.84375q0.90625 0 1.546875 -0.46875q0.640625 -0.484375 1.015625 -1.515625zm-5.390625 -2.65625l5.40625 0q-0.109375 -1.21875 -0.625 -1.828125q-0.78125 -0.953125 -2.03125 -0.953125q-1.125 0 -1.90625 0.765625q-0.765625 0.75 -0.84375 2.015625zm9.125732 5.765625l0 -9.671875l1.46875 0l0 1.46875q0.5625 -1.03125 1.03125 -1.359375q0.484375 -0.328125 1.0625 -0.328125q0.828125 0 1.6875 0.53125l-0.5625 1.515625q-0.609375 -0.359375 -1.203125 -0.359375q-0.546875 0 -0.96875 0.328125q-0.421875 0.328125 -0.609375 0.890625q-0.28125 0.875 -0.28125 1.921875l0 5.0625l-1.625 0z" fill-rule="nonzero"/><path fill="#cfe2f3" d="m1180.0105 53.472443l145.32288 0l0 177.73228l-145.32288 0z" fill-rule="evenodd"/><path stroke="#000000" stroke-width="1.0" stroke-linejoin="round" stroke-linecap="butt" d="m1180.0105 53.472443l145.32288 0l0 177.73228l-145.32288 0z" fill-rule="evenodd"/><path fill="#000000" d="m1203.2966 149.05858l0 -13.359375l5.046875 0q1.328125 0 2.03125 0.125q0.96875 0.171875 1.640625 0.640625q0.671875 0.453125 1.078125 1.28125q0.40625 0.828125 0.40625 1.828125q0 1.703125 -1.09375 2.890625q-1.078125 1.171875 -3.921875 1.171875l-3.421875 0l0 5.421875l-1.765625 0zm1.765625 -7.0l3.453125 0q1.71875 0 2.4375 -0.640625q0.71875 -0.640625 0.71875 -1.796875q0 -0.84375 -0.421875 -1.4375q-0.421875 -0.59375 -1.125 -0.78125q-0.4375 -0.125 -1.640625 -0.125l-3.421875 0l0 4.78125zm9.8654785 2.15625q0 -2.6875 1.484375 -3.96875q1.25 -1.078125 3.046875 -1.078125q2.0 0 3.265625 1.3125q1.265625 1.296875 1.265625 3.609375q0 1.859375 -0.5625 2.9375q-0.5625 1.0625 -1.640625 1.65625q-1.0625 0.59375 -2.328125 0.59375q-2.03125 0 -3.28125 -1.296875q-1.25 -1.3125 -1.25 -3.765625zm1.6875 0q0 1.859375 0.796875 2.796875q0.8125 0.921875 2.046875 0.921875q1.21875 0 2.03125 -0.921875q0.8125 -0.9375 0.8125 -2.84375q0 -1.796875 -0.8125 -2.71875q-0.8125 -0.921875 -2.03125 -0.921875q-1.234375 0 -2.046875 0.921875q-0.796875 0.90625 -0.796875 2.765625zm8.641357 1.953125l1.625 -0.25q0.125 0.96875 0.75 1.5q0.625 0.515625 1.75 0.515625q1.125 0 1.671875 -0.453125q0.546875 -0.46875 0.546875 -1.09375q0 -0.546875 -0.484375 -0.875q-0.328125 -0.21875 -1.671875 -0.546875q-1.8125 -0.46875 -2.515625 -0.796875q-0.6875 -0.328125 -1.046875 -0.90625q-0.359375 -0.59375 -0.359375 -1.3125q0 -0.640625 0.296875 -1.1875q0.296875 -0.5625 0.8125 -0.921875q0.375 -0.28125 1.03125 -0.46875q0.671875 -0.203125 1.421875 -0.203125q1.140625 0 2.0 0.328125q0.859375 0.328125 1.265625 0.890625q0.421875 0.5625 0.578125 1.5l-1.609375 0.21875q-0.109375 -0.75 -0.640625 -1.171875q-0.515625 -0.421875 -1.46875 -0.421875q-1.140625 0 -1.625 0.375q-0.46875 0.375 -0.46875 0.875q0 0.3125 0.1875 0.578125q0.203125 0.265625 0.640625 0.4375q0.234375 0.09375 1.4375 0.421875q1.75 0.453125 2.4375 0.75q0.6875 0.296875 1.078125 0.859375q0.390625 0.5625 0.390625 1.40625q0 0.828125 -0.484375 1.546875q-0.46875 0.71875 -1.375 1.125q-0.90625 0.390625 -2.046875 0.390625q-1.875 0 -2.875 -0.78125q-0.984375 -0.78125 -1.25 -2.328125zm13.5625 1.421875l0.234375 1.453125q-0.6875 0.140625 -1.234375 0.140625q-0.890625 0 -1.390625 -0.28125q-0.484375 -0.28125 -0.6875 -0.734375q-0.203125 -0.46875 -0.203125 -1.9375l0 -5.578125l-1.203125 0l0 -1.265625l1.203125 0l0 -2.390625l1.625 -0.984375l0 3.375l1.65625 0l0 1.265625l-1.65625 0l0 5.671875q0 0.6875 0.078125 0.890625q0.09375 0.203125 0.28125 0.328125q0.203125 0.109375 0.578125 0.109375q0.265625 0 0.71875 -0.0625zm1.2926025 2.265625l1.59375 0.234375q0.109375 0.75 0.5625 1.078125q0.609375 0.453125 1.671875 0.453125q1.140625 0 1.75 -0.453125q0.625 -0.453125 0.84375 -1.265625q0.125 -0.5 0.109375 -2.109375q-1.0625 1.265625 -2.671875 1.265625q-2.0 0 -3.09375 -1.4375q-1.09375 -1.4375 -1.09375 -3.453125q0 -1.390625 0.5 -2.5625q0.515625 -1.171875 1.453125 -1.796875q0.953125 -0.640625 2.25 -0.640625q1.703125 0 2.8125 1.375l0 -1.15625l1.515625 0l0 8.359375q0 2.265625 -0.46875 3.203125q-0.453125 0.9375 -1.453125 1.484375q-0.984375 0.546875 -2.453125 0.546875q-1.71875 0 -2.796875 -0.78125q-1.0625 -0.765625 -1.03125 -2.34375zm1.359375 -5.8125q0 1.90625 0.75 2.78125q0.765625 0.875 1.90625 0.875q1.125 0 1.890625 -0.859375q0.765625 -0.875 0.765625 -2.734375q0 -1.78125 -0.796875 -2.671875q-0.78125 -0.90625 -1.890625 -0.90625q-1.09375 0 -1.859375 0.890625q-0.765625 0.875 -0.765625 2.625zm9.313232 5.015625l0 -9.671875l1.46875 0l0 1.46875q0.5625 -1.03125 1.03125 -1.359375q0.484375 -0.328125 1.0625 -0.328125q0.828125 0 1.6875 0.53125l-0.5625 1.515625q-0.609375 -0.359375 -1.203125 -0.359375q-0.546875 0 -0.96875 0.328125q-0.421875 0.328125 -0.609375 0.890625q-0.28125 0.875 -0.28125 1.921875l0 5.0625l-1.625 0zm12.853394 -3.109375l1.6875 0.203125q-0.40625 1.484375 -1.484375 2.3125q-1.078125 0.8125 -2.765625 0.8125q-2.125 0 -3.375 -1.296875q-1.234375 -1.3125 -1.234375 -3.671875q0 -2.453125 1.25 -3.796875q1.265625 -1.34375 3.265625 -1.34375q1.9375 0 3.15625 1.328125q1.234375 1.3125 1.234375 3.703125q0 0.15625 0 0.4375l-7.21875 0q0.09375 1.59375 0.90625 2.453125q0.8125 0.84375 2.015625 0.84375q0.90625 0 1.546875 -0.46875q0.640625 -0.484375 1.015625 -1.515625zm-5.390625 -2.65625l5.40625 0q-0.109375 -1.21875 -0.625 -1.828125q-0.78125 -0.953125 -2.03125 -0.953125q-1.125 0 -1.90625 0.765625q-0.765625 0.75 -0.84375 2.015625zm8.75061 1.46875l1.65625 -0.140625q0.125 1.0 0.546875 1.640625q0.4375 0.640625 1.34375 1.046875q0.921875 0.390625 2.0625 0.390625q1.0 0 1.78125 -0.296875q0.78125 -0.296875 1.15625 -0.8125q0.375 -0.53125 0.375 -1.15625q0 -0.625 -0.375 -1.09375q-0.359375 -0.46875 -1.1875 -0.796875q-0.546875 -0.203125 -2.390625 -0.640625q-1.828125 -0.453125 -2.5625 -0.84375q-0.96875 -0.5 -1.4375 -1.234375q-0.46875 -0.75 -0.46875 -1.671875q0 -1.0 0.578125 -1.875q0.578125 -0.890625 1.671875 -1.34375q1.109375 -0.453125 2.453125 -0.453125q1.484375 0 2.609375 0.484375q1.140625 0.46875 1.75 1.40625q0.609375 0.921875 0.65625 2.09375l-1.6875 0.125q-0.140625 -1.265625 -0.9375 -1.90625q-0.78125 -0.65625 -2.3125 -0.65625q-1.609375 0 -2.34375 0.59375q-0.734375 0.59375 -0.734375 1.421875q0 0.71875 0.53125 1.171875q0.5 0.46875 2.65625 0.96875q2.15625 0.484375 2.953125 0.84375q1.171875 0.53125 1.71875 1.359375q0.5625 0.828125 0.5625 1.90625q0 1.0625 -0.609375 2.015625q-0.609375 0.9375 -1.75 1.46875q-1.140625 0.515625 -2.578125 0.515625q-1.8125 0 -3.046875 -0.53125q-1.21875 -0.53125 -1.921875 -1.59375q-0.6875 -1.0625 -0.71875 -2.40625zm23.162354 2.859375q1.234375 0.859375 2.265625 1.25l-0.515625 1.21875q-1.4375 -0.515625 -2.875 -1.625q-1.484375 0.828125 -3.28125 0.828125q-1.8125 0 -3.296875 -0.875q-1.46875 -0.875 -2.265625 -2.453125q-0.796875 -1.59375 -0.796875 -3.578125q0 -1.984375 0.796875 -3.59375q0.8125 -1.625 2.28125 -2.46875q1.484375 -0.859375 3.328125 -0.859375q1.84375 0 3.328125 0.890625q1.484375 0.875 2.265625 2.453125q0.78125 1.578125 0.78125 3.5625q0 1.65625 -0.5 2.96875q-0.5 1.3125 -1.515625 2.28125zm-3.890625 -2.25q1.53125 0.421875 2.515625 1.28125q1.5625 -1.421875 1.5625 -4.28125q0 -1.625 -0.546875 -2.828125q-0.546875 -1.21875 -1.609375 -1.875q-1.0625 -0.671875 -2.390625 -0.671875q-1.96875 0 -3.28125 1.359375q-1.296875 1.34375 -1.296875 4.03125q0 2.59375 1.28125 4.0q1.296875 1.390625 3.296875 1.390625q0.953125 0 1.78125 -0.359375q-0.828125 -0.53125 -1.75 -0.765625l0.4375 -1.28125zm8.198975 3.6875l0 -13.359375l1.78125 0l0 11.78125l6.5625 0l0 1.578125l-8.34375 0z" fill-rule="nonzero"/><path fill="#d9ead3" d="m935.853 172.89502l24.503906 -24.503937l0 12.251968l172.31494 0l0 24.503937l-172.31494 0l0 12.251968z" fill-rule="evenodd"/><path stroke="#000000" stroke-width="1.0" stroke-linejoin="round" stroke-linecap="butt" d="m935.853 172.89502l24.503906 -24.503937l0 12.251968l172.31494 0l0 24.503937l-172.31494 0l0 12.251968z" fill-rule="evenodd"/><path fill="#000000" d="m989.93207 178.75502l0 -7.78125l1.078125 0l0.109375 1.84375l0.046875 0q0.609375 -0.9375 1.5 -1.484375q0.90625 -0.546875 1.984375 -0.546875q0.421875 0 0.796875 0.078125q0.375 0.0625 0.734375 0.25l-0.3125 1.125q-0.390625 -0.140625 -0.6875 -0.203125q-0.28125 -0.0625 -0.75 -0.0625q-0.875 0 -1.6875 0.5q-0.796875 0.5 -1.515625 1.71875l0 4.5625l-1.296875 0zm12.537537 0.1875q-1.171875 0 -2.125 -0.46875q-0.953125 -0.484375 -1.515625 -1.40625q-0.546875 -0.921875 -0.546875 -2.21875q0 -1.265625 0.546875 -2.171875q0.5625 -0.90625 1.46875 -1.390625q0.90625 -0.5 1.953125 -0.5q1.109375 0 1.90625 0.453125q0.796875 0.453125 1.21875 1.28125q0.421875 0.8125 0.421875 1.921875q0 0.21875 -0.015625 0.421875q-0.015625 0.203125 -0.046875 0.375l-6.578125 0l0 -1.03125l5.796875 0l-0.34375 0.375q0 -1.375 -0.640625 -2.0625q-0.625 -0.6875 -1.6875 -0.6875q-0.71875 0 -1.34375 0.359375q-0.609375 0.34375 -0.984375 1.015625q-0.359375 0.671875 -0.359375 1.640625q0 1.015625 0.390625 1.6875q0.40625 0.671875 1.09375 1.015625q0.6875 0.34375 1.546875 0.34375q0.703125 0 1.265625 -0.203125q0.578125 -0.203125 1.109375 -0.53125l0.46875 0.859375q-0.5625 0.375 -1.3125 0.65625q-0.75 0.265625 -1.6875 0.265625zm9.271912 0q-1.125 0 -2.125 -0.359375q-0.984375 -0.375 -1.6875 -0.859375l0.609375 -0.859375q0.671875 0.484375 1.484375 0.78125q0.8125 0.28125 1.890625 0.28125q0.984375 0 1.46875 -0.359375q0.5 -0.375 0.5 -0.859375q0 -0.21875 -0.09375 -0.40625q-0.09375 -0.203125 -0.34375 -0.375q-0.234375 -0.1875 -0.71875 -0.34375q-0.484375 -0.15625 -1.28125 -0.3125q-1.515625 -0.328125 -2.28125 -0.859375q-0.765625 -0.546875 -0.765625 -1.421875q0 -0.9375 0.8125 -1.5625q0.828125 -0.640625 2.421875 -0.640625q0.90625 0 1.734375 0.296875q0.828125 0.296875 1.40625 0.703125l-0.640625 0.84375q-0.53125 -0.390625 -1.203125 -0.59375q-0.671875 -0.21875 -1.40625 -0.21875q-0.671875 0 -1.0625 0.15625q-0.390625 0.140625 -0.5625 0.40625q-0.171875 0.25 -0.171875 0.546875q0 0.5 0.53125 0.78125q0.546875 0.28125 1.734375 0.515625q1.296875 0.28125 1.984375 0.625q0.703125 0.328125 0.96875 0.765625q0.265625 0.421875 0.265625 1.015625q0 0.640625 -0.40625 1.15625q-0.40625 0.515625 -1.171875 0.84375q-0.765625 0.3125 -1.890625 0.3125zm8.584351 0q-1.390625 0 -2.046875 -0.796875q-0.65625 -0.796875 -0.65625 -2.328125l0 -4.84375l1.328125 0l0 4.65625q0 1.109375 0.40625 1.65625q0.40625 0.53125 1.390625 0.53125q0.671875 0 1.21875 -0.34375q0.546875 -0.34375 1.1875 -1.109375l0 -5.390625l1.312561 0l0 7.78125l-1.062561 0l-0.125 -1.359375l-0.0625 0q-0.59375 0.671875 -1.296875 1.109375q-0.703125 0.4375 -1.59375 0.4375zm12.162537 0q-1.234375 0 -1.890625 -0.703125q-0.65625 -0.71875 -0.65625 -2.09375l0 -7.703125l-2.65625 0l0 -1.078125l3.96875 0l0 8.875q0 0.859375 0.40625 1.25q0.421875 0.375 1.109375 0.375q0.34375 0 0.6875 -0.09375q0.359375 -0.09375 0.78125 -0.28125l0.34375 1.0q-0.53125 0.1875 -1.0 0.3125q-0.453125 0.140625 -1.09375 0.140625zm9.396851 0q-1.125 0 -1.78125 -0.40625q-0.65625 -0.40625 -0.9375 -1.125q-0.28125 -0.71875 -0.28125 -1.6875l0 -3.671875l-2.1875 0l0 -1.0l2.234375 -0.078125l0.171875 -2.484375l1.09375 0l0 2.484375l3.828125 0l0 1.078125l-3.828125 0l0 3.6875q0 0.703125 0.171875 1.1875q0.171875 0.46875 0.609375 0.71875q0.4375 0.234375 1.1875 0.234375q0.5625 0 1.0 -0.09375q0.453125 -0.109375 0.875 -0.265625l0.28125 0.96875q-0.53125 0.1875 -1.109375 0.3125q-0.578125 0.140625 -1.328125 0.140625zm8.100098 0q-0.53125 0 -0.921875 -0.375q-0.375 -0.375 -0.375 -0.96875q0 -0.609375 0.375 -0.984375q0.390625 -0.375 0.921875 -0.375q0.546875 0 0.921875 0.375q0.375 0.375 0.375 0.984375q0 0.59375 -0.375 0.96875q-0.375 0.375 -0.921875 0.375zm7.1468506 -0.1875l0 -7.78125l1.078125 0l0.109375 1.84375l0.046875 0q0.609375 -0.9375 1.5 -1.484375q0.90625 -0.546875 1.984375 -0.546875q0.421875 0 0.796875 0.078125q0.375 0.0625 0.734375 0.25l-0.3125 1.125q-0.390625 -0.140625 -0.6875 -0.203125q-0.28125 -0.0625 -0.75 -0.0625q-0.875 0 -1.6875 0.5q-0.796875 0.5 -1.515625 1.71875l0 4.5625l-1.296875 0zm12.053223 0.1875q-1.015625 0 -1.890625 -0.46875q-0.875 -0.484375 -1.421875 -1.390625q-0.53125 -0.921875 -0.53125 -2.203125q0 -1.3125 0.53125 -2.21875q0.546875 -0.921875 1.421875 -1.390625q0.875 -0.484375 1.890625 -0.484375q1.03125 0 1.890625 0.484375q0.875 0.46875 1.40625 1.390625q0.546875 0.90625 0.546875 2.21875q0 1.28125 -0.546875 2.203125q-0.53125 0.90625 -1.40625 1.390625q-0.859375 0.46875 -1.890625 0.46875zm0 -1.078125q0.75 0 1.3125 -0.375q0.5625 -0.375 0.859375 -1.046875q0.3125 -0.671875 0.3125 -1.5625q0 -0.890625 -0.3125 -1.5625q-0.296875 -0.6875 -0.859375 -1.0625q-0.5625 -0.375 -1.3125 -0.375q-0.75 0 -1.3125 0.375q-0.546875 0.375 -0.859375 1.0625q-0.3125 0.671875 -0.3125 1.5625q0 0.890625 0.3125 1.5625q0.3125 0.671875 0.859375 1.046875q0.5625 0.375 1.3125 0.375zm6.6312256 0.890625l-1.703125 -7.78125l1.3125 0l0.9375 4.515625q0.109375 0.546875 0.1875 1.0625q0.09375 0.515625 0.15625 1.078125l0.0625 0q0.078125 -0.5625 0.203125 -1.078125q0.125 -0.515625 0.25 -1.0625l0.953125 -4.03125l1.3125 0l0.9375 4.03125q0.125 0.546875 0.265625 1.0625q0.140625 0.515625 0.203125 1.078125l0.0625 0q0.109375 -0.5625 0.171875 -1.078125q0.078125 -0.515625 0.1875 -1.0625l0.921875 -4.515625l1.21875 0l-1.65625 7.78125l-1.703125 0l-0.890625 -3.71875q-0.09375 -0.40625 -0.203125 -0.984375q-0.09375 -0.578125 -0.1875 -1.3125l-0.0625 0q-0.09375 0.734375 -0.1875 1.3125q-0.09375 0.578125 -0.1875 0.984375l-0.875 3.71875l-1.6875 0zm12.724976 0.1875q-1.125 0 -2.125 -0.359375q-0.984375 -0.375 -1.6875 -0.859375l0.609375 -0.859375q0.671875 0.484375 1.484375 0.78125q0.8125 0.28125 1.890625 0.28125q0.984375 0 1.46875 -0.359375q0.5 -0.375 0.5 -0.859375q0 -0.21875 -0.09375 -0.40625q-0.09375 -0.203125 -0.34375 -0.375q-0.234375 -0.1875 -0.71875 -0.34375q-0.484375 -0.15625 -1.28125 -0.3125q-1.515625 -0.328125 -2.28125 -0.859375q-0.765625 -0.546875 -0.765625 -1.421875q0 -0.9375 0.8125 -1.5625q0.828125 -0.640625 2.421875 -0.640625q0.90625 0 1.734375 0.296875q0.828125 0.296875 1.40625 0.703125l-0.640625 0.84375q-0.53125 -0.390625 -1.203125 -0.59375q-0.671875 -0.21875 -1.40625 -0.21875q-0.671875 0 -1.0625 0.15625q-0.390625 0.140625 -0.5625 0.40625q-0.171875 0.25 -0.171875 0.546875q0 0.5 0.53125 0.78125q0.546875 0.28125 1.734375 0.515625q1.296875 0.28125 1.984375 0.625q0.703125 0.328125 0.96875 0.765625q0.265625 0.421875 0.265625 1.015625q0 0.640625 -0.40625 1.15625q-0.40625 0.515625 -1.171875 0.84375q-0.765625 0.3125 -1.890625 0.3125z" fill-rule="nonzero"/><path fill="#cfe2f3" d="m738.4934 155.13124l132.28351 0l0 35.527557l-132.28351 0z" fill-rule="evenodd"/><path stroke="#000000" stroke-width="1.0" stroke-linejoin="round" stroke-linecap="butt" d="m738.4934 155.13124l132.28351 0l0 35.527557l-132.28351 0z" fill-rule="evenodd"/><path fill="#000000" d="m777.7289 179.81502l0 -9.0625l1.234375 0l0.125 1.1875l0.046875 0q0.34375 -0.625 0.8125 -1.015625q0.46875 -0.40625 1.25 -0.40625q0.671875 0 1.09375 0.40625q0.4375 0.390625 0.625 1.171875q0.390625 -0.734375 0.859375 -1.15625q0.484375 -0.421875 1.265625 -0.421875q0.953125 0 1.484375 0.71875q0.53125 0.71875 0.53125 2.078125l0 6.5l-1.53125 0l0 -6.375q0 -1.59375 -0.96875 -1.59375q-0.46875 0 -0.78125 0.34375q-0.296875 0.34375 -0.671875 1.0625l0 6.5625l-1.421875 0l0 -6.375q0 -0.78125 -0.21875 -1.1875q-0.203125 -0.40625 -0.703125 -0.40625q-0.46875 0 -0.8125 0.34375q-0.34375 0.34375 -0.6875 1.0625l0 6.5625l-1.53125 0zm15.709412 0.21875q-1.1875 0 -2.203125 -0.546875q-1.015625 -0.5625 -1.640625 -1.625q-0.625 -1.0625 -0.625 -2.5625q0 -1.53125 0.625 -2.59375q0.625 -1.0625 1.640625 -1.625q1.015625 -0.5625 2.203125 -0.5625q1.203125 0 2.21875 0.5625q1.015625 0.5625 1.640625 1.625q0.625 1.0625 0.625 2.59375q0 1.5 -0.625 2.5625q-0.625 1.0625 -1.640625 1.625q-1.015625 0.546875 -2.21875 0.546875zm0 -1.265625q0.875 0 1.53125 -0.4375q0.65625 -0.4375 1.0 -1.21875q0.359375 -0.78125 0.359375 -1.8125q0 -1.046875 -0.359375 -1.828125q-0.34375 -0.796875 -1.0 -1.234375q-0.65625 -0.4375 -1.53125 -0.4375q-0.875 0 -1.515625 0.4375q-0.640625 0.4375 -1.015625 1.234375q-0.359375 0.78125 -0.359375 1.828125q0 1.03125 0.359375 1.8125q0.375 0.78125 1.015625 1.21875q0.640625 0.4375 1.515625 0.4375zm10.662476 1.265625q-1.78125 0 -2.859375 -1.234375q-1.078125 -1.234375 -1.078125 -3.5q0 -1.46875 0.578125 -2.546875q0.59375 -1.078125 1.53125 -1.65625q0.9375 -0.578125 2.015625 -0.578125q0.796875 0 1.453125 0.3125q0.671875 0.3125 1.25 0.875l0.046875 0l-0.078125 -1.6875l0 -3.484375l1.53125 0l0 13.28125l-1.265625 0l-0.125 -1.1875l-0.0625 0q-0.53125 0.578125 -1.3125 1.0q-0.78125 0.40625 -1.625 0.40625zm0.3125 -1.28125q0.671875 0 1.296875 -0.34375q0.640625 -0.34375 1.25 -1.015625l0 -4.515625q-0.609375 -0.578125 -1.203125 -0.8125q-0.578125 -0.25 -1.171875 -0.25q-0.796875 0 -1.4375 0.4375q-0.640625 0.4375 -1.03125 1.21875q-0.375 0.765625 -0.375 1.8125q0 1.625 0.703125 2.546875q0.71875 0.921875 1.96875 0.921875zm11.975037 1.28125q-1.359375 0 -2.46875 -0.546875q-1.109375 -0.5625 -1.765625 -1.640625q-0.65625 -1.078125 -0.65625 -2.578125q0 -1.484375 0.65625 -2.546875q0.65625 -1.0625 1.703125 -1.625q1.0625 -0.578125 2.265625 -0.578125q1.3125 0 2.234375 0.53125q0.921875 0.53125 1.40625 1.484375q0.5 0.953125 0.5 2.25q0 0.25 -0.015625 0.5q-0.015625 0.234375 -0.046875 0.421875l-7.671875 0l0 -1.1875l6.75 0l-0.390625 0.421875q0 -1.59375 -0.734375 -2.390625q-0.734375 -0.8125 -1.984375 -0.8125q-0.84375 0 -1.5625 0.421875q-0.71875 0.40625 -1.15625 1.1875q-0.421875 0.78125 -0.421875 1.921875q0 1.171875 0.46875 1.953125q0.46875 0.78125 1.265625 1.1875q0.796875 0.40625 1.8125 0.40625q0.8125 0 1.46875 -0.234375q0.671875 -0.234375 1.296875 -0.625l0.546875 1.0q-0.65625 0.453125 -1.53125 0.765625q-0.875 0.3125 -1.96875 0.3125zm12.615601 0q-1.4375 0 -2.203125 -0.828125q-0.765625 -0.828125 -0.765625 -2.4375l0 -8.984375l-3.09375 0l0 -1.25l4.625 0l0 10.359375q0 0.984375 0.484375 1.4375q0.484375 0.4375 1.28125 0.4375q0.390625 0 0.796875 -0.09375q0.421875 -0.109375 0.921875 -0.328125l0.390625 1.15625q-0.609375 0.21875 -1.15625 0.375q-0.53125 0.15625 -1.28125 0.15625z" fill-rule="nonzero"/><path fill="#cfe2f3" d="m576.19946 155.13124l132.28345 0l0 35.527557l-132.28345 0z" fill-rule="evenodd"/><path stroke="#000000" stroke-width="1.0" stroke-linejoin="round" stroke-linecap="butt" d="m576.19946 155.13124l132.28345 0l0 35.527557l-132.28345 0z" fill-rule="evenodd"/><path fill="#000000" d="m592.82556 180.03377q-1.421875 0 -2.546875 -0.546875q-1.125 -0.5625 -1.765625 -1.625q-0.640625 -1.0625 -0.640625 -2.5625q0 -1.53125 0.6875 -2.59375q0.6875 -1.0625 1.828125 -1.625q1.15625 -0.5625 2.53125 -0.5625q1.125 0 1.9375 0.40625q0.8125 0.390625 1.359375 0.921875l-0.765625 0.984375q-0.546875 -0.484375 -1.15625 -0.75q-0.59375 -0.28125 -1.3125 -0.28125q-1.046875 0 -1.859375 0.4375q-0.796875 0.4375 -1.234375 1.234375q-0.4375 0.78125 -0.4375 1.828125q0 1.03125 0.421875 1.8125q0.4375 0.78125 1.21875 1.21875q0.796875 0.4375 1.84375 0.4375q0.84375 0 1.546875 -0.328125q0.703125 -0.34375 1.25 -0.8125l0.703125 1.0q-0.75 0.671875 -1.671875 1.046875q-0.921875 0.359375 -1.9375 0.359375zm10.334351 0q-1.1875 0 -2.203125 -0.546875q-1.015625 -0.5625 -1.640625 -1.625q-0.625 -1.0625 -0.625 -2.5625q0 -1.53125 0.625 -2.59375q0.625 -1.0625 1.640625 -1.625q1.015625 -0.5625 2.203125 -0.5625q1.203125 0 2.21875 0.5625q1.015625 0.5625 1.640625 1.625q0.625 1.0625 0.625 2.59375q0 1.5 -0.625 2.5625q-0.625 1.0625 -1.640625 1.625q-1.015625 0.546875 -2.21875 0.546875zm0 -1.265625q0.875 0 1.53125 -0.4375q0.65625 -0.4375 1.0 -1.21875q0.359375 -0.78125 0.359375 -1.8125q0 -1.046875 -0.359375 -1.828125q-0.34375 -0.796875 -1.0 -1.234375q-0.65625 -0.4375 -1.53125 -0.4375q-0.875 0 -1.515625 0.4375q-0.640625 0.4375 -1.015625 1.234375q-0.359375 0.78125 -0.359375 1.828125q0 1.03125 0.359375 1.8125q0.375 0.78125 1.015625 1.21875q0.640625 0.4375 1.515625 0.4375zm7.3344116 1.046875l0 -9.0625l1.265625 0l0.140625 1.546875l0.0625 0q0.71875 -0.765625 1.53125 -1.265625q0.828125 -0.515625 1.890625 -0.515625q1.609375 0 2.359375 0.9375q0.765625 0.9375 0.765625 2.71875l0 5.640625l-1.515625 0l0 -5.421875q0 -1.296875 -0.5 -1.921875q-0.484375 -0.625 -1.59375 -0.625q-0.8125 0 -1.453125 0.421875q-0.625 0.40625 -1.421875 1.21875l0 6.328125l-1.53125 0zm16.8031 0.21875q-1.3125 0 -2.078125 -0.46875q-0.765625 -0.484375 -1.09375 -1.3125q-0.328125 -0.84375 -0.328125 -1.96875l0 -4.28125l-2.5625 0l0 -1.15625l2.625 -0.09375l0.203125 -2.921875l1.265625 0l0 2.921875l4.453125 0l0 1.25l-4.453125 0l0 4.3125q0 0.796875 0.203125 1.359375q0.203125 0.5625 0.703125 0.84375q0.515625 0.265625 1.390625 0.265625q0.65625 0 1.171875 -0.109375q0.515625 -0.109375 1.0 -0.296875l0.34375 1.125q-0.609375 0.21875 -1.296875 0.375q-0.6875 0.15625 -1.546875 0.15625zm6.5687866 -0.21875l0 -9.0625l1.28125 0l0.125 2.140625l0.046875 0q0.71875 -1.09375 1.765625 -1.734375q1.046875 -0.640625 2.296875 -0.640625q0.5 0 0.9375 0.09375q0.4375 0.078125 0.84375 0.28125l-0.359375 1.328125q-0.453125 -0.171875 -0.796875 -0.234375q-0.328125 -0.078125 -0.875 -0.078125q-1.03125 0 -1.96875 0.59375q-0.9375 0.578125 -1.765625 2.0l0 5.3125l-1.53125 0zm14.068726 0.21875q-1.1875 0 -2.203125 -0.546875q-1.015625 -0.5625 -1.640625 -1.625q-0.625 -1.0625 -0.625 -2.5625q0 -1.53125 0.625 -2.59375q0.625 -1.0625 1.640625 -1.625q1.015625 -0.5625 2.203125 -0.5625q1.203125 0 2.21875 0.5625q1.015625 0.5625 1.640625 1.625q0.625 1.0625 0.625 2.59375q0 1.5 -0.625 2.5625q-0.625 1.0625 -1.640625 1.625q-1.015625 0.546875 -2.21875 0.546875zm0 -1.265625q0.875 0 1.53125 -0.4375q0.65625 -0.4375 1.0 -1.21875q0.359375 -0.78125 0.359375 -1.8125q0 -1.046875 -0.359375 -1.828125q-0.34375 -0.796875 -1.0 -1.234375q-0.65625 -0.4375 -1.53125 -0.4375q-0.875 0 -1.515625 0.4375q-0.640625 0.4375 -1.015625 1.234375q-0.359375 0.78125 -0.359375 1.828125q0 1.03125 0.359375 1.8125q0.375 0.78125 1.015625 1.21875q0.640625 0.4375 1.515625 0.4375zm13.178162 1.265625q-1.4375 0 -2.203125 -0.828125q-0.765625 -0.828125 -0.765625 -2.4375l0 -8.984375l-3.09375 0l0 -1.25l4.625 0l0 10.359375q0 0.984375 0.484375 1.4375q0.484375 0.4375 1.28125 0.4375q0.390625 0 0.796875 -0.09375q0.421875 -0.109375 0.921875 -0.328125l0.390625 1.15625q-0.609375 0.21875 -1.15625 0.375q-0.53125 0.15625 -1.28125 0.15625zm11.193726 0q-1.4375 0 -2.203125 -0.828125q-0.765625 -0.828125 -0.765625 -2.4375l0 -8.984375l-3.09375 0l0 -1.25l4.625 0l0 10.359375q0 0.984375 0.484375 1.4375q0.484375 0.4375 1.28125 0.4375q0.390625 0 0.796875 -0.09375q0.421875 -0.109375 0.921875 -0.328125l0.390625 1.15625q-0.609375 0.21875 -1.15625 0.375q-0.53125 0.15625 -1.28125 0.15625zm9.771912 0q-1.359375 0 -2.46875 -0.546875q-1.109375 -0.5625 -1.765625 -1.640625q-0.65625 -1.078125 -0.65625 -2.578125q0 -1.484375 0.65625 -2.546875q0.65625 -1.0625 1.703125 -1.625q1.0625 -0.578125 2.265625 -0.578125q1.3125 0 2.234375 0.53125q0.921875 0.53125 1.40625 1.484375q0.5 0.953125 0.5 2.25q0 0.25 -0.015625 0.5q-0.015625 0.234375 -0.046875 0.421875l-7.671875 0l0 -1.1875l6.75 0l-0.390625 0.421875q0 -1.59375 -0.734375 -2.390625q-0.734375 -0.8125 -1.984375 -0.8125q-0.84375 0 -1.5625 0.421875q-0.71875 0.40625 -1.15625 1.1875q-0.421875 0.78125 -0.421875 1.921875q0 1.171875 0.46875 1.953125q0.46875 0.78125 1.265625 1.1875q0.796875 0.40625 1.8125 0.40625q0.8125 0 1.46875 -0.234375q0.671875 -0.234375 1.296875 -0.625l0.546875 1.0q-0.65625 0.453125 -1.53125 0.765625q-0.875 0.3125 -1.96875 0.3125zm7.7562256 -0.21875l0 -9.0625l1.28125 0l0.125 2.140625l0.046875 0q0.71875 -1.09375 1.765625 -1.734375q1.046875 -0.640625 2.296875 -0.640625q0.5 0 0.9375 0.09375q0.4375 0.078125 0.84375 0.28125l-0.359375 1.328125q-0.453125 -0.171875 -0.796875 -0.234375q-0.328125 -0.078125 -0.875 -0.078125q-1.03125 0 -1.96875 0.59375q-0.9375 0.578125 -1.765625 2.0l0 5.3125l-1.53125 0z" fill-rule="nonzero"/><path fill="#d9ead3" d="m222.0105 172.89502l24.503937 -24.503937l0 12.251968l172.31497 0l0 24.503937l-172.31497 0l0 12.251968z" fill-rule="evenodd"/><path stroke="#000000" stroke-width="1.0" stroke-linejoin="round" stroke-linecap="butt" d="m222.0105 172.89502l24.503937 -24.503937l0 12.251968l172.31497 0l0 24.503937l-172.31497 0l0 12.251968z" fill-rule="evenodd"/><path fill="#000000" d="m265.4114 178.75502l0 -10.5l1.34375 0l0 4.40625l4.375 0l0 -4.40625l1.359375 0l0 10.5l-1.359375 0l0 -4.9375l-4.375 0l0 4.9375l-1.34375 0zm12.459412 0l0 -9.375l-3.453125 0l0 -1.125l8.25 0l0 1.125l-3.453125 0l0 9.375l-1.34375 0zm9.600006 0l0 -9.375l-3.453125 0l0 -1.125l8.25 0l0 1.125l-3.453125 0l0 9.375l-1.34375 0zm7.1000366 0l0 -10.5l3.171875 0q1.171875 0 2.046875 0.296875q0.875 0.296875 1.359375 0.96875q0.484375 0.671875 0.484375 1.828125q0 1.109375 -0.484375 1.828125q-0.484375 0.703125 -1.375 1.0625q-0.875 0.359375 -2.03125 0.359375l-1.84375 0l0 4.15625l-1.328125 0zm1.328125 -5.25l1.6875 0q1.375 0 2.03125 -0.515625q0.671875 -0.53125 0.671875 -1.640625q0 -1.140625 -0.671875 -1.578125q-0.671875 -0.4375 -2.03125 -0.4375l-1.6875 0l0 4.171875zm17.840668 5.25l0 -10.5l3.265625 0q1.078125 0 1.890625 0.28125q0.828125 0.28125 1.296875 0.9375q0.484375 0.640625 0.484375 1.734375q0 1.046875 -0.484375 1.734375q-0.46875 0.6875 -1.296875 1.03125q-0.8125 0.34375 -1.890625 0.34375l-1.9375 0l0 4.4375l-1.328125 0zm1.328125 -5.515625l1.75 0q1.234375 0 1.875 -0.5q0.65625 -0.515625 0.65625 -1.53125q0 -1.03125 -0.65625 -1.453125q-0.640625 -0.421875 -1.875 -0.421875l-1.75 0l0 3.90625zm1.671875 0.71875l1.046875 -0.703125l3.203125 5.5l-1.515625 0l-2.734375 -4.796875zm10.287506 4.984375q-1.171875 0 -2.125 -0.46875q-0.953125 -0.484375 -1.515625 -1.40625q-0.546875 -0.921875 -0.546875 -2.21875q0 -1.265625 0.546875 -2.171875q0.5625 -0.90625 1.46875 -1.390625q0.90625 -0.5 1.953125 -0.5q1.109375 0 1.90625 0.453125q0.796875 0.453125 1.21875 1.28125q0.421875 0.8125 0.421875 1.921875q0 0.21875 -0.015625 0.421875q-0.015625 0.203125 -0.046875 0.375l-6.578125 0l0 -1.03125l5.796875 0l-0.34375 0.375q0 -1.375 -0.640625 -2.0625q-0.625 -0.6875 -1.6875 -0.6875q-0.71875 0 -1.34375 0.359375q-0.609375 0.34375 -0.984375 1.015625q-0.359375 0.671875 -0.359375 1.640625q0 1.015625 0.390625 1.6875q0.40625 0.671875 1.09375 1.015625q0.6875 0.34375 1.546875 0.34375q0.703125 0 1.265625 -0.203125q0.578125 -0.203125 1.109375 -0.53125l0.46875 0.859375q-0.5625 0.375 -1.3125 0.65625q-0.75 0.265625 -1.6875 0.265625zm9.271912 0q-1.125 0 -2.125 -0.359375q-0.984375 -0.375 -1.6875 -0.859375l0.609375 -0.859375q0.671875 0.484375 1.484375 0.78125q0.8125 0.28125 1.890625 0.28125q0.984375 0 1.46875 -0.359375q0.5 -0.375 0.5 -0.859375q0 -0.21875 -0.09375 -0.40625q-0.09375 -0.203125 -0.34375 -0.375q-0.234375 -0.1875 -0.71875 -0.34375q-0.484375 -0.15625 -1.28125 -0.3125q-1.515625 -0.328125 -2.28125 -0.859375q-0.765625 -0.546875 -0.765625 -1.421875q0 -0.9375 0.8125 -1.5625q0.828125 -0.640625 2.421875 -0.640625q0.90625 0 1.734375 0.296875q0.828125 0.296875 1.40625 0.703125l-0.640625 0.84375q-0.53125 -0.390625 -1.203125 -0.59375q-0.671875 -0.21875 -1.40625 -0.21875q-0.671875 0 -1.0625 0.15625q-0.390625 0.140625 -0.5625 0.40625q-0.171875 0.25 -0.171875 0.546875q0 0.5 0.53125 0.78125q0.546875 0.28125 1.734375 0.515625q1.296875 0.28125 1.984375 0.625q0.703125 0.328125 0.96875 0.765625q0.265625 0.421875 0.265625 1.015625q0 0.640625 -0.40625 1.15625q-0.40625 0.515625 -1.171875 0.84375q-0.765625 0.3125 -1.890625 0.3125zm6.131256 3.09375l0 -11.0625l1.09375 0l0.109375 1.0l0.046875 0q0.546875 -0.515625 1.25 -0.84375q0.71875 -0.34375 1.4375 -0.34375q1.0625 0 1.765625 0.5q0.71875 0.484375 1.078125 1.375q0.375 0.875 0.375 2.09375q0 1.3125 -0.5 2.265625q-0.5 0.9375 -1.296875 1.4375q-0.796875 0.484375 -1.734375 0.484375q-0.53125 0 -1.171875 -0.265625q-0.625 -0.265625 -1.15625 -0.734375l-0.046875 0l0.0625 1.46875l0 2.625l-1.3125 0zm3.390625 -4.1875q0.6875 0 1.234375 -0.359375q0.546875 -0.375 0.859375 -1.078125q0.3125 -0.703125 0.3125 -1.65625q0 -0.84375 -0.234375 -1.484375q-0.21875 -0.65625 -0.703125 -1.015625q-0.46875 -0.359375 -1.25 -0.359375q-0.53125 0 -1.125 0.28125q-0.578125 0.28125 -1.171875 0.875l0 3.875q0.5625 0.5 1.125 0.71875q0.578125 0.203125 0.953125 0.203125zm9.521912 1.09375q-1.015625 0 -1.890625 -0.46875q-0.875 -0.484375 -1.421875 -1.390625q-0.53125 -0.921875 -0.53125 -2.203125q0 -1.3125 0.53125 -2.21875q0.546875 -0.921875 1.421875 -1.390625q0.875 -0.484375 1.890625 -0.484375q1.03125 0 1.890625 0.484375q0.875 0.46875 1.40625 1.390625q0.546875 0.90625 0.546875 2.21875q0 1.28125 -0.546875 2.203125q-0.53125 0.90625 -1.40625 1.390625q-0.859375 0.46875 -1.890625 0.46875zm0 -1.078125q0.75 0 1.3125 -0.375q0.5625 -0.375 0.859375 -1.046875q0.3125 -0.671875 0.3125 -1.5625q0 -0.890625 -0.3125 -1.5625q-0.296875 -0.6875 -0.859375 -1.0625q-0.5625 -0.375 -1.3125 -0.375q-0.75 0 -1.3125 0.375q-0.546875 0.375 -0.859375 1.0625q-0.3125 0.671875 -0.3125 1.5625q0 0.890625 0.3125 1.5625q0.3125 0.671875 0.859375 1.046875q0.5625 0.375 1.3125 0.375zm6.287506 0.890625l0 -7.78125l1.0937805 0l0.109375 1.328125l0.0625 0q0.609375 -0.65625 1.3125 -1.078125q0.703125 -0.4375 1.625 -0.4375q1.375 0 2.03125 0.796875q0.65625 0.796875 0.65625 2.34375l0 4.828125l-1.3125 0l0 -4.65625q0 -1.109375 -0.421875 -1.640625q-0.421875 -0.53125 -1.375 -0.53125q-0.6875 0 -1.234375 0.359375q-0.546875 0.34375 -1.234375 1.046875l0 5.421875l-1.3125305 0zm13.068787 0.1875q-1.125 0 -2.125 -0.359375q-0.984375 -0.375 -1.6875 -0.859375l0.609375 -0.859375q0.671875 0.484375 1.484375 0.78125q0.8125 0.28125 1.890625 0.28125q0.984375 0 1.46875 -0.359375q0.5 -0.375 0.5 -0.859375q0 -0.21875 -0.09375 -0.40625q-0.09375 -0.203125 -0.34375 -0.375q-0.234375 -0.1875 -0.71875 -0.34375q-0.484375 -0.15625 -1.28125 -0.3125q-1.515625 -0.328125 -2.28125 -0.859375q-0.765625 -0.546875 -0.765625 -1.421875q0 -0.9375 0.8125 -1.5625q0.828125 -0.640625 2.421875 -0.640625q0.90625 0 1.734375 0.296875q0.828125 0.296875 1.40625 0.703125l-0.640625 0.84375q-0.53125 -0.390625 -1.203125 -0.59375q-0.671875 -0.21875 -1.40625 -0.21875q-0.671875 0 -1.0625 0.15625q-0.390625 0.140625 -0.5625 0.40625q-0.171875 0.25 -0.171875 0.546875q0 0.5 0.53125 0.78125q0.546875 0.28125 1.734375 0.515625q1.296875 0.28125 1.984375 0.625q0.703125 0.328125 0.96875 0.765625q0.265625 0.421875 0.265625 1.015625q0 0.640625 -0.40625 1.15625q-0.40625 0.515625 -1.171875 0.84375q-0.765625 0.3125 -1.890625 0.3125zm9.928162 0q-1.171875 0 -2.125 -0.46875q-0.953125 -0.484375 -1.515625 -1.40625q-0.546875 -0.921875 -0.546875 -2.21875q0 -1.265625 0.546875 -2.171875q0.5625 -0.90625 1.46875 -1.390625q0.90625 -0.5 1.953125 -0.5q1.109375 0 1.90625 0.453125q0.796875 0.453125 1.21875 1.28125q0.421875 0.8125 0.421875 1.921875q0 0.21875 -0.015625 0.421875q-0.015625 0.203125 -0.046875 0.375l-6.578125 0l0 -1.03125l5.796875 0l-0.34375 0.375q0 -1.375 -0.640625 -2.0625q-0.625 -0.6875 -1.6875 -0.6875q-0.71875 0 -1.34375 0.359375q-0.609375 0.34375 -0.984375 1.015625q-0.359375 0.671875 -0.359375 1.640625q0 1.015625 0.390625 1.6875q0.40625 0.671875 1.09375 1.015625q0.6875 0.34375 1.546875 0.34375q0.703125 0 1.265625 -0.203125q0.578125 -0.203125 1.109375 -0.53125l0.46875 0.859375q-0.5625 0.375 -1.3125 0.65625q-0.75 0.265625 -1.6875 0.265625z" fill-rule="nonzero"/><path fill="#000000" fill-opacity="0.0" d="m738.4934 172.89502l-30.015747 0" fill-rule="evenodd"/><path stroke="#000000" stroke-width="1.0" stroke-linejoin="round" stroke-linecap="butt" d="m738.4934 172.89502l-24.015747 0" fill-rule="evenodd"/><path fill="#000000" stroke="#000000" stroke-width="1.0" stroke-linecap="butt" d="m714.47766 171.24329l-4.538086 1.6517334l4.538086 1.6517334z" fill-rule="evenodd"/><path fill="#000000" fill-opacity="0.0" d="m576.19946 172.89502l-157.35431 0" fill-rule="evenodd"/><path stroke="#000000" stroke-width="1.0" stroke-linejoin="round" stroke-linecap="butt" d="m576.19946 172.89502l-151.35431 0" fill-rule="evenodd"/><path fill="#000000" stroke="#000000" stroke-width="1.0" stroke-linecap="butt" d="m424.84515 171.24329l-4.5381165 1.6517334l4.5381165 1.6517334z" fill-rule="evenodd"/></g></svg>